<svg width="100" height="100" viewBox="0 0 100 100" fill="none" xmlns="http://www.w3.org/2000/svg">
<path d="M86.0718 45.1882L86.0532 45.1697C84.5775 43.3271 84.0299 40.9104 84.5589 38.6141C85.3757 35.0863 83.6215 31.4752 80.3544 29.9197C78.2197 28.9012 76.6697 26.966 76.1406 24.6604V24.6512C75.3424 21.1326 72.2053 18.6326 68.5947 18.6326H68.5855H68.5669H68.5576C66.2001 18.6326 63.9633 17.5586 62.4968 15.716V15.7067C60.9932 13.8178 58.7378 12.79 56.436 12.79C55.2944 12.79 54.1434 13.04 53.0668 13.5678C51.9994 14.0863 50.8485 14.3456 49.6883 14.3456C48.5374 14.3456 47.3772 14.0863 46.3099 13.5678C45.2332 13.0493 44.073 12.79 42.9407 12.79C40.6389 12.79 38.3835 13.8178 36.8799 15.7067C35.4134 17.5493 33.1765 18.6234 30.819 18.6234H30.8097H30.7912H30.7819C27.1621 18.6234 24.0343 21.1234 23.236 24.6419V24.6512C22.7163 26.9567 21.1663 28.8919 19.0222 29.9104C15.7551 31.466 14.0102 35.0863 14.8177 38.6049C15.3468 40.9012 14.7992 43.3178 13.3234 45.1604L13.3048 45.1789C11.0494 47.9937 11.0494 52.003 13.3048 54.8178L13.3234 54.8363C14.7992 56.6789 15.3468 59.0956 14.8177 61.3919C14.0009 64.9197 15.7551 68.5308 19.0222 70.0863C21.157 71.1049 22.707 73.04 23.236 75.3456V75.3549C24.0343 78.8734 27.1714 81.3734 30.7819 81.3734H30.7912H30.8097H30.819C33.1765 81.3734 35.4134 82.4475 36.8799 84.29V84.2993C38.3835 86.1882 40.6389 87.216 42.9407 87.216C44.0823 87.216 45.2332 86.966 46.3099 86.4382C47.3772 85.9197 48.5281 85.6604 49.6883 85.6604C50.8392 85.6604 51.9994 85.9197 53.0668 86.4382C54.1434 86.9567 55.3036 87.216 56.436 87.216C58.7378 87.216 60.9932 86.1882 62.4968 84.2993C63.9633 82.4567 66.2001 81.3826 68.5576 81.3826H68.5669H68.5855H68.5947C72.2145 81.3826 75.3424 78.8826 76.1406 75.3641V75.3549C76.6604 73.0493 78.2104 71.1141 80.3544 70.0956C83.6215 68.54 85.3664 64.9197 84.5589 61.4012C84.0299 59.1049 84.5775 56.6882 86.0532 54.8456L86.0718 54.8271C88.3272 52.0123 88.3272 48.0123 86.0718 45.1882Z" fill="black"/>
<path d="M42.9316 12.79C44.0732 12.79 45.2241 13.04 46.3008 13.5678C47.3681 14.0863 48.519 14.3456 49.6792 14.3456C50.8301 14.3456 51.9903 14.0863 53.0577 13.5678C54.1344 13.0493 55.2945 12.79 56.4269 12.79C58.7287 12.79 60.9841 13.8178 62.4877 15.7067V15.716C63.9542 17.5586 66.191 18.6326 68.5485 18.6326H68.5578H68.5764H68.5857C72.2054 18.6326 75.3333 21.1326 76.1315 24.6512V24.6604C76.6513 26.966 78.2013 28.9012 80.3453 29.9197C83.6124 31.4752 85.3573 35.0956 84.5499 38.6141C84.0208 40.9104 84.5684 43.3271 86.0442 45.1697L86.0627 45.1882C88.3181 48.003 88.3181 52.0123 86.0627 54.8271L86.0442 54.8456C84.5684 56.6882 84.0208 59.1049 84.5499 61.4012C85.3666 64.9289 83.6124 68.54 80.3453 70.0956C78.2106 71.1141 76.6606 73.0493 76.1315 75.3549V75.3641C75.3333 78.8826 72.1962 81.3826 68.5857 81.3826H68.5764H68.5578H68.5485C66.191 81.3826 63.9542 82.4567 62.4877 84.2993C60.9841 86.1882 58.7287 87.216 56.4269 87.216C55.2853 87.216 54.1344 86.966 53.0577 86.4382C51.9903 85.9197 50.8394 85.6604 49.6792 85.6604C48.5283 85.6604 47.3681 85.9197 46.3008 86.4382C45.2241 86.9567 44.0639 87.216 42.9316 87.216C40.6298 87.216 38.3744 86.1882 36.8708 84.2993V84.29C35.4043 82.4475 33.1674 81.3734 30.8099 81.3734H30.8007H30.7821H30.7728C27.153 81.3734 24.0252 78.8734 23.2269 75.3549V75.3456C22.7072 73.04 21.1572 71.1049 19.0131 70.0863C15.7461 68.5308 14.0011 64.9104 14.8086 61.3919C15.3377 59.0956 14.7901 56.6789 13.3143 54.8363L13.2957 54.8178C11.0403 52.003 11.0403 47.9937 13.2957 45.1789L13.3143 45.1604C14.7901 43.3178 15.3377 40.9012 14.8086 38.6049C13.9918 35.0771 15.7461 31.466 19.0131 29.9104C21.1479 28.8919 22.6979 26.9567 23.2269 24.6512V24.6419C24.0252 21.1234 27.1623 18.6234 30.7728 18.6234H30.7821H30.8007H30.8099C33.1674 18.6234 35.4043 17.5493 36.8708 15.7067C38.3836 13.8178 40.6298 12.79 42.9316 12.79ZM42.9316 11.5678C40.1843 11.5678 37.6226 12.7993 35.9148 14.9474C34.671 16.5123 32.8055 17.4104 30.8099 17.4104H30.8007H30.7914H30.7821C28.7587 17.4104 26.7725 18.1049 25.1853 19.3641C23.6075 20.6234 22.4844 22.4012 22.0389 24.3734V24.3826C21.5934 26.3363 20.3033 27.9474 18.4934 28.8178C16.6649 29.6882 15.1706 31.1789 14.2889 33.003C13.4071 34.8271 13.1751 36.9104 13.6299 38.8826C13.6299 38.8919 13.6299 38.8919 13.6299 38.8919C14.0754 40.8363 13.6206 42.8549 12.3676 44.4104L12.349 44.4289C11.0867 46.003 10.3906 47.9845 10.3906 50.003C10.3906 52.0215 11.0867 54.003 12.349 55.5863L12.3583 55.6049C13.6113 57.1697 14.0661 59.1789 13.6206 61.1234V61.1326C13.1658 63.1049 13.3978 65.1882 14.2796 67.0123C15.1613 68.8363 16.6556 70.3178 18.4841 71.1974C18.4841 71.1974 18.4934 71.1975 18.4934 71.2067C20.294 72.0678 21.5841 73.6882 22.0296 75.6326V75.6419C22.4751 77.6141 23.5982 79.4012 25.1761 80.6604C26.7539 81.9197 28.7402 82.6141 30.7728 82.6141H30.7821H30.8007H30.8099C32.8055 82.6141 34.6618 83.503 35.9055 85.0678L35.9148 85.0771C37.6226 87.2252 40.1843 88.4567 42.9316 88.4567C44.296 88.4567 45.6047 88.1512 46.8391 87.5586C46.8484 87.5586 46.8484 87.5493 46.8577 87.5493C47.7394 87.1234 48.714 86.9012 49.6885 86.9012C50.6724 86.9012 51.6562 87.1234 52.5287 87.5493C53.7538 88.1419 55.0718 88.4474 56.4362 88.4474C59.1835 88.4474 61.7452 87.216 63.453 85.0771L63.4623 85.0678C64.706 83.503 66.5623 82.6141 68.5671 82.6141H68.5764H68.5857H68.5949C70.6183 82.6141 72.6046 81.9197 74.1917 80.6604C75.7695 79.4012 76.8926 77.6234 77.3381 75.6512V75.6419V75.6326C77.7836 73.6882 79.0738 72.0771 80.8744 71.2067H80.8837C82.7121 70.3363 84.2064 68.8456 85.0882 67.0215C85.9699 65.1975 86.202 63.1049 85.7472 61.1326C85.2924 59.1789 85.7565 57.1697 87.0095 55.6049L87.0187 55.5863C88.281 54.003 88.9771 52.0215 88.9771 50.003C88.9771 47.9845 88.281 46.003 87.0187 44.4197L87.0002 44.4012C85.7472 42.8456 85.2924 40.8271 85.7379 38.8826C85.7379 38.8826 85.7379 38.8826 85.7379 38.8734C86.1927 36.9012 85.9606 34.8086 85.0789 32.9845C84.1972 31.1604 82.7028 29.6789 80.8744 28.7993C79.0645 27.9382 77.7744 26.3178 77.3288 24.3641V24.3549V24.3456C76.8833 22.3734 75.7603 20.5956 74.1824 19.3363C72.6046 18.0771 70.6183 17.3826 68.5857 17.3826H68.5764H68.5578C66.5623 17.3826 64.6967 16.4845 63.453 14.9289C63.453 14.9289 63.453 14.9289 63.453 14.9197C61.7452 12.7715 59.1835 11.54 56.4362 11.54C55.0718 11.54 53.7631 11.8456 52.5287 12.4382C51.6469 12.8641 50.6631 13.0863 49.6885 13.0863C48.714 13.0863 47.7208 12.8641 46.8484 12.4382C45.6139 11.8734 44.296 11.5678 42.9316 11.5678Z" fill="#00FF00"/>
<path d="M49.6886 80.6314C66.6404 80.6314 80.3825 66.9222 80.3825 50.011C80.3825 33.0998 66.6404 19.3906 49.6886 19.3906C32.7368 19.3906 18.9946 33.0998 18.9946 50.011C18.9946 66.9222 32.7368 80.6314 49.6886 80.6314Z" fill="white"/>
<path d="M49.6886 19.3907C66.6366 19.3907 80.3826 33.0944 80.3826 50.0111C80.3826 66.9185 66.6459 80.6315 49.6886 80.6315C32.7313 80.6315 18.9947 66.9185 18.9947 50.0111C18.9947 33.1037 32.7313 19.3907 49.6886 19.3907ZM49.6886 18.1777C45.382 18.1777 41.2053 19.0203 37.27 20.6777C33.4738 22.2796 30.0582 24.5759 27.1253 27.5018C24.1923 30.4277 21.8905 33.8259 20.2848 37.6222C18.6234 41.5481 17.7788 45.7148 17.7788 50.0111C17.7788 54.3074 18.6234 58.474 20.2848 62.4C21.8905 66.187 24.1923 69.5944 27.1253 72.5203C30.0582 75.4463 33.4646 77.7426 37.27 79.3444C41.2053 81.0018 45.382 81.8444 49.6886 81.8444C53.9952 81.8444 58.1719 81.0018 62.1073 79.3444C65.9034 77.7426 69.319 75.4463 72.252 72.5203C75.1849 69.5944 77.4867 66.1963 79.0924 62.4C80.7538 58.474 81.5984 54.3074 81.5984 50.0111C81.5984 45.7148 80.7538 41.5481 79.0924 37.6222C77.4867 33.8351 75.1849 30.4277 72.252 27.5018C69.319 24.5759 65.9127 22.2796 62.1073 20.6777C58.1719 19.0203 53.9952 18.1777 49.6886 18.1777Z" fill="#00FF00"/>
<path d="M42.8296 63.7056C42.1242 66.9834 40.9362 69.4834 39.2563 71.2056C37.5763 72.9278 35.5158 73.7889 33.0748 73.7889C30.5316 73.7889 28.3319 72.7241 26.4849 70.6038C24.6379 68.4834 23.5148 65.7519 23.1157 62.4001C23.9232 61.7612 24.7957 61.2427 25.7517 60.8445C26.7077 60.4464 27.7658 60.1593 28.9445 59.9927C29.4179 63.3723 29.9283 65.6778 30.5038 66.9093C31.07 68.1501 31.8775 68.7612 32.917 68.7612C34.1607 68.7612 35.0703 67.9093 35.655 66.2056C36.2398 64.5019 36.5368 61.8445 36.5368 58.2334C36.5368 54.7612 36.4068 50.9001 36.1377 46.6778C35.8685 42.4464 35.488 38.3445 34.9775 34.363C35.5808 33.9927 36.3326 33.6964 37.2422 33.4649C38.1425 33.2334 39.0892 33.0945 40.0545 33.0667C40.7227 33.0297 41.3632 33.0482 41.9665 33.113C42.5698 33.1778 43.173 33.2797 43.7763 33.4093C43.9434 35.2519 44.0734 37.1964 44.1754 39.2519C44.2775 41.3075 44.324 43.3538 44.324 45.3908C44.324 49.6038 44.2033 53.076 43.9713 55.7982C43.7485 58.539 43.368 61.1686 42.8296 63.7056Z" fill="#00FF00"/>
<path d="M65.4676 67.3721C64.4652 67.6407 63.4071 67.8444 62.3026 67.974C61.1981 68.1036 59.9359 68.1962 58.5344 68.224C58.5993 63.511 58.4972 58.2332 58.2373 52.3999C57.9682 46.5666 57.5505 41.4092 56.9843 36.9277C55.9819 37.0296 54.8589 37.1499 53.6152 37.2795C52.3714 37.4092 50.478 37.6314 47.9349 37.9277C47.6007 36.9555 47.3502 35.9925 47.1831 35.0481C47.016 34.0944 46.951 33.2055 46.9789 32.3629C51.8053 31.3907 56.2418 30.7055 60.2978 30.3073C64.3539 29.9092 68.9296 29.687 74.0252 29.6592C74.1551 30.0944 74.2665 30.5851 74.35 31.1407C74.4336 31.6962 74.48 32.2888 74.48 32.9184C74.48 33.3536 74.4521 33.8073 74.4057 34.2703C74.3593 34.7425 74.2665 35.3536 74.1273 36.1221C72.9856 36.1221 71.7883 36.1407 70.5353 36.1684C69.2823 36.2055 67.5467 36.2518 65.3284 36.3166C65.5976 39.0944 65.7925 41.9555 65.9039 44.9184C66.0245 47.8814 66.0802 50.9833 66.0802 54.224C66.0802 55.9277 66.0338 57.7888 65.9503 59.8166C65.8667 61.8444 65.709 64.3629 65.4676 67.3721Z" fill="#00FF00"/>
<path d="M89.321 64.271C64.0196 54.5118 35.9802 54.5118 10.6788 64.271C9.34227 64.7896 8.2749 64.1136 8.2749 62.7433C8.2749 58.5581 8.2749 54.3822 8.2749 50.197C8.2749 48.8173 9.35156 47.2618 10.6788 46.7433C35.9802 36.984 64.0196 36.984 89.321 46.7433C90.6575 47.2618 91.7249 48.8173 91.7249 50.197C91.7249 54.3822 91.7249 58.5581 91.7249 62.7433C91.7249 64.1136 90.6482 64.7803 89.321 64.271Z" fill="black"/>
<path d="M22.9025 54.3555C22.6983 55.374 22.3548 56.1981 21.8629 56.837C21.3803 57.4759 20.777 57.9018 20.0716 58.1055C19.3384 58.3185 18.7072 58.1981 18.1689 57.7444C17.6398 57.2814 17.315 56.587 17.2036 55.6425C17.4357 55.3833 17.6862 55.1518 17.9647 54.9388C18.2431 54.7351 18.5494 54.5592 18.8836 54.4018C19.0228 55.3555 19.1713 55.9851 19.3291 56.3C19.4961 56.6148 19.7282 56.7259 20.0252 56.6426C20.3872 56.5407 20.6471 56.2074 20.8141 55.6611C20.9812 55.1148 21.0647 54.3092 21.0647 53.2444C21.0647 52.2166 21.0276 51.0963 20.9441 49.874C20.8698 48.6518 20.7584 47.4759 20.6099 46.3462C20.7863 46.1888 20.9997 46.0407 21.2689 45.8925C21.5288 45.7537 21.8072 45.6333 22.0857 45.5499C22.2806 45.4851 22.4662 45.4388 22.6426 45.4203C22.8189 45.3925 22.9953 45.374 23.1716 45.374C23.218 45.9018 23.2552 46.4666 23.2923 47.0592C23.3201 47.6611 23.3387 48.2537 23.3387 48.8555C23.3387 50.0962 23.3016 51.124 23.2366 51.9481C23.1716 52.7629 23.0602 53.5592 22.9025 54.3555Z" fill="#00FF00"/>
<path d="M27.2835 55.1143C26.3832 55.3088 25.6963 55.1236 25.223 54.531C24.7496 53.9384 24.5176 52.9847 24.5176 51.6699C24.5176 50.9754 24.5825 50.2347 24.7218 49.4477C24.861 48.6699 25.0095 48.1051 25.158 47.781C25.3343 47.6977 25.5014 47.6236 25.6685 47.568C25.8355 47.5032 25.9933 47.4569 26.1511 47.4199C26.3646 47.3736 26.5595 47.3458 26.7173 47.3366C26.8751 47.3273 27.005 47.3458 27.0886 47.3736C26.9679 47.9106 26.8844 48.4754 26.8194 49.0588C26.7637 49.6514 26.7266 50.2347 26.7266 50.8273C26.7266 51.7532 26.8008 52.4754 26.9586 52.994C27.1071 53.5125 27.3206 53.744 27.599 53.6791C27.9053 53.6143 28.1374 53.2532 28.2951 52.5958C28.4529 51.9384 28.5365 51.0588 28.5365 49.9662C28.5365 49.5403 28.5179 49.1051 28.4808 48.6606C28.4436 48.2069 28.4065 47.9014 28.3601 47.7347C28.6478 47.5588 28.9913 47.3921 29.4089 47.2347C29.8266 47.0773 30.2257 46.9662 30.6062 46.9014C30.6526 47.1421 30.6898 47.4199 30.7176 47.7625C30.7455 48.0958 30.7547 48.4384 30.7547 48.7995C30.7547 50.6421 30.4577 52.0958 29.8637 53.1606C29.2975 54.2162 28.4251 54.8643 27.2835 55.1143Z" fill="#00FF00"/>
<path d="M34.0127 51.8644C34.0127 52.1793 34.022 52.5404 34.0313 52.957C34.0498 53.3737 34.0591 53.7441 34.087 54.0682C33.8735 54.17 33.5858 54.2719 33.2331 54.3644C32.8804 54.4663 32.5555 54.5404 32.2492 54.5867C32.1378 53.5774 32.0357 52.2533 31.9429 50.5959C31.8501 48.9385 31.8037 47.5311 31.8037 46.383C31.9801 46.2626 32.2214 46.1515 32.5184 46.0496C32.8154 45.9478 33.131 45.8737 33.4465 45.8181C33.5858 45.7996 33.725 45.7811 33.8735 45.7719C34.022 45.7626 34.1798 45.7626 34.3468 45.7719C34.3283 45.9385 34.3004 46.1515 34.2819 46.383C34.254 46.6237 34.2355 46.8922 34.2169 47.207C34.5139 46.6885 34.848 46.2904 35.21 46.0033C35.5813 45.7163 35.9804 45.5496 36.4166 45.4941C37.0849 45.4107 37.5768 45.5959 37.9017 46.0311C38.2265 46.4756 38.3843 47.1793 38.3843 48.1422C38.3843 48.9015 38.3193 49.7719 38.1987 50.7719C38.078 51.7626 37.9388 52.5404 37.7996 53.0959C37.5026 53.1237 37.1684 53.133 36.8064 53.1422C36.4445 53.1515 36.0546 53.133 35.6555 53.1144C35.8226 52.1793 35.9525 51.3089 36.0454 50.5126C36.1382 49.7163 36.1753 49.0311 36.1753 48.457C36.1753 48.0219 36.1196 47.7256 36.0082 47.5496C35.8969 47.3737 35.7298 47.3089 35.4885 47.3367C35.2286 47.3737 34.978 47.5496 34.7274 47.8644C34.4768 48.1793 34.2633 48.5959 34.087 49.1144C34.0591 49.5681 34.0313 50.0404 34.022 50.5219C34.022 50.9848 34.0127 51.4385 34.0127 51.8644Z" fill="#00FF00"/>
<path d="M45.9663 50.1424C45.9663 52.1424 45.6415 53.6702 45.0011 54.7443C44.3606 55.8183 43.4418 56.3924 42.2537 56.4757C41.4462 56.5313 40.8058 56.3646 40.3232 55.9665C39.8498 55.5683 39.5807 55.0313 39.5157 54.3369C39.7663 54.1239 40.054 53.9387 40.3789 53.7813C40.7037 53.6239 41.0379 53.5035 41.3813 53.4294C41.4741 54.0498 41.5947 54.4943 41.7618 54.7628C41.9289 55.0313 42.1516 55.1517 42.4301 55.1331C42.7828 55.1054 43.0612 54.8276 43.2654 54.2998C43.4789 53.7628 43.6181 52.985 43.6831 51.9387C43.4974 52.198 43.2747 52.3924 43.0427 52.522C42.8013 52.6517 42.5415 52.735 42.2537 52.7535C41.3905 52.8183 40.6944 52.5498 40.1654 51.9387C39.6456 51.3276 39.3857 50.485 39.3857 49.4109C39.3857 48.0591 39.7106 46.9943 40.3603 46.2165C41.01 45.4387 41.9474 44.9943 43.1819 44.9202C43.5067 44.9017 43.878 44.9202 44.2864 44.9665C44.6948 45.022 45.0753 45.0961 45.428 45.2072C45.5765 45.7257 45.7065 46.4665 45.8085 47.4294C45.9106 48.4109 45.9663 49.3091 45.9663 50.1424ZM41.5947 48.8461C41.5947 49.6331 41.7154 50.2535 41.9567 50.698C42.198 51.1424 42.5043 51.3554 42.8849 51.3276C43.0519 51.3183 43.2097 51.235 43.3582 51.0961C43.5067 50.948 43.6274 50.735 43.7388 50.4572C43.7295 49.772 43.6831 49.0591 43.5995 48.3183C43.516 47.5776 43.4139 46.9202 43.284 46.3368C43.2097 46.3276 43.1448 46.3276 43.0705 46.3183C42.9963 46.3091 42.9313 46.3091 42.857 46.3183C42.4301 46.3461 42.1052 46.5683 41.901 46.985C41.7061 47.4017 41.5947 48.022 41.5947 48.8461Z" fill="#00FF00"/>
<path d="M49.5686 53.2536C49.3923 53.3092 49.1046 53.3648 48.7055 53.4111C48.3064 53.4573 47.9629 53.4851 47.6474 53.4944C47.4896 51.5685 47.3782 49.5962 47.3132 47.587C47.2483 45.5777 47.239 43.7166 47.2761 42.0129C47.4525 41.9018 47.6659 41.8092 47.9165 41.7351C48.1671 41.6611 48.427 41.624 48.6962 41.624C48.8818 41.624 49.0674 41.6333 49.2531 41.6611C49.4294 41.6888 49.6151 41.7259 49.81 41.7722C49.68 43.0222 49.5965 44.7722 49.5594 47.0314C49.513 49.2814 49.513 51.3555 49.5686 53.2536Z" fill="#00FF00"/>
<path d="M55.4528 50.0412C55.7406 50.106 56.0376 50.2264 56.3346 50.4023C56.6316 50.5782 56.8822 50.7726 57.0864 50.9856C56.9008 51.5226 56.4738 51.9856 55.8334 52.3745C55.1837 52.7634 54.4505 52.9393 53.6151 52.9115C52.6684 52.8745 51.9259 52.5597 51.3968 51.9393C50.8678 51.3282 50.5986 50.5041 50.5986 49.4671C50.5986 48.1615 50.9977 46.9949 51.7867 45.9949C52.5849 44.9949 53.5037 44.5134 54.5618 44.5597C55.3043 44.5967 55.8891 44.8282 56.316 45.2541C56.7523 45.6801 56.9657 46.2264 56.9657 46.9023C56.9657 47.2171 56.9379 47.5504 56.8729 47.9115C56.8079 48.2726 56.7244 48.5967 56.613 48.8838C56.3532 48.9856 56.0376 49.0504 55.657 49.0782C55.2765 49.106 54.8124 49.1152 54.2463 49.0875C54.0142 49.0782 53.7822 49.0504 53.5501 49.0134C53.3181 48.9764 53.0768 48.9208 52.8355 48.856C52.8262 49.0134 52.8169 49.1338 52.8169 49.2078C52.8076 49.2912 52.8076 49.356 52.8076 49.4301C52.8076 50.0967 52.9097 50.6245 53.1139 51.0226C53.3181 51.4115 53.5966 51.6152 53.9585 51.6338C54.237 51.643 54.5247 51.4856 54.8217 51.1523C55.128 50.8282 55.3322 50.4578 55.4528 50.0412ZM53.0211 47.7356C53.2253 47.8004 53.4202 47.856 53.6244 47.893C53.8286 47.9301 54.0235 47.9578 54.1998 47.9578C54.3112 47.9671 54.4226 47.9671 54.5247 47.9578C54.6361 47.9578 54.7103 47.9486 54.7475 47.9393C54.8217 47.6893 54.8681 47.4486 54.9052 47.2356C54.9424 47.0134 54.9609 46.8189 54.9609 46.643C54.9609 46.3467 54.9145 46.1245 54.8217 45.9856C54.7289 45.8467 54.5897 45.7634 54.3855 45.7541C54.107 45.7449 53.8379 45.9115 53.5966 46.2727C53.3552 46.6338 53.1603 47.1245 53.0211 47.7356Z" fill="#00FF00"/>
<path d="M66.4228 53.3555C66.1258 53.3832 65.8102 53.3925 65.4854 53.3832C65.1605 53.374 64.7893 53.3462 64.3716 53.2907C64.3902 51.9018 64.3623 50.3462 64.2788 48.624C64.1953 46.8925 64.0746 45.3555 63.9075 44.0221C63.6105 44.0129 63.2764 44.0036 62.9144 43.9944C62.5431 43.9851 61.9863 43.9758 61.2345 43.9851C61.1324 43.6888 61.0581 43.4018 61.0117 43.1147C60.9653 42.8277 60.9374 42.5592 60.956 42.3184C62.3854 42.1888 63.7033 42.161 64.9006 42.2166C66.098 42.2721 67.4531 42.4295 68.9474 42.7073C68.9845 42.8462 69.0216 42.9944 69.0402 43.161C69.068 43.3277 69.0773 43.5036 69.0773 43.6888C69.0773 43.8184 69.068 43.9481 69.0588 44.087C69.0402 44.2258 69.0124 44.4018 68.9752 44.6147C68.6411 44.5499 68.2884 44.4944 67.9171 44.4388C67.5459 44.3832 67.0354 44.3092 66.3857 44.2258C66.4692 45.0592 66.5249 45.911 66.5528 46.7814C66.5899 47.661 66.6084 48.5777 66.6084 49.5314C66.6084 50.0314 66.5992 50.5777 66.5713 51.1703C66.5435 51.7444 66.4878 52.4758 66.4228 53.3555Z" fill="#00FF00"/>
<path d="M73.2273 52.5874C73.515 52.6985 73.8027 52.8744 74.0904 53.1059C74.3874 53.3374 74.6288 53.5689 74.8237 53.8189C74.638 54.3281 74.2297 54.7078 73.5892 54.9856C72.9488 55.2633 72.2248 55.3096 71.4174 55.143C70.4799 54.9485 69.756 54.4948 69.2362 53.7911C68.7164 53.0874 68.4565 52.217 68.4565 51.1893C68.4565 49.8837 68.8464 48.7911 69.6353 47.9207C70.4149 47.0504 71.3338 46.7355 72.3733 46.967C73.0973 47.1244 73.6728 47.467 74.0997 47.967C74.5267 48.467 74.7401 49.0596 74.7401 49.7263C74.7401 50.0411 74.7123 50.3744 74.6473 50.717C74.5824 51.0689 74.4988 51.3744 74.3874 51.643C74.1368 51.6985 73.8213 51.7078 73.45 51.68C73.0787 51.643 72.6147 51.5689 72.0671 51.4485C71.8443 51.4022 71.6123 51.3374 71.3802 51.2541C71.1482 51.18 70.9162 51.0781 70.6841 50.9763C70.6748 51.1337 70.6655 51.2448 70.6655 51.3281C70.6563 51.4022 70.6563 51.4763 70.6563 51.5504C70.6563 52.217 70.7584 52.7633 70.9626 53.1893C71.1668 53.6152 71.4452 53.8652 71.7979 53.9393C72.0763 53.9948 72.3548 53.893 72.6425 53.6059C72.9117 53.3189 73.1159 52.9856 73.2273 52.5874ZM70.8419 49.8652C71.0368 49.967 71.241 50.0504 71.4359 50.1244C71.6401 50.1985 71.8257 50.2541 72.0021 50.2911C72.1135 50.3189 72.2156 50.3374 72.3269 50.3467C72.4383 50.3652 72.5126 50.3652 72.5497 50.3652C72.6147 50.1244 72.6704 49.9022 72.7075 49.68C72.7446 49.467 72.7632 49.2726 72.7632 49.0967C72.7632 48.8004 72.7168 48.5781 72.6332 48.4207C72.5404 48.2633 72.4012 48.1615 72.2063 48.1152C71.9278 48.0504 71.668 48.18 71.4266 48.4948C71.176 48.8189 70.9811 49.2726 70.8419 49.8652Z" fill="#00FF00"/>
<path d="M81.8862 52.5034C81.8862 53.133 81.8026 53.9571 81.6356 54.9848C81.4685 56.0126 81.255 56.9848 81.0044 57.92C80.726 57.8367 80.4383 57.7256 80.132 57.596C79.835 57.4663 79.5565 57.3367 79.3059 57.1885C79.343 56.9941 79.3709 56.846 79.3894 56.7534C79.408 56.6608 79.4173 56.5774 79.4359 56.5034C79.2317 56.5589 79.0089 56.5867 78.749 56.5682C78.4984 56.5497 78.2293 56.5034 77.9508 56.4293C77.199 56.2163 76.605 55.8645 76.1502 55.3552C75.6954 54.846 75.4727 54.2719 75.4727 53.6237C75.4727 52.9478 75.7511 52.5034 76.2987 52.3089C76.8463 52.1145 77.6724 52.1608 78.749 52.4756C78.9532 52.5311 79.1296 52.5867 79.2966 52.6422C79.4544 52.6978 79.6215 52.7534 79.7978 52.8182C79.7978 52.7811 79.7978 52.7441 79.7978 52.7071C79.7978 52.67 79.7978 52.633 79.7978 52.596C79.7978 51.6978 79.7236 51.0404 79.5844 50.6145C79.4359 50.1885 79.2038 49.9293 78.8883 49.8367C78.5727 49.7441 78.2942 49.846 78.0715 50.133C77.8487 50.42 77.7281 50.8367 77.7188 51.3737C77.2454 51.2348 76.8463 51.0311 76.54 50.7626C76.2245 50.4941 76.0017 50.1885 75.8718 49.8274C76.0295 49.2997 76.4101 48.9108 77.0134 48.6793C77.6167 48.4478 78.3128 48.4385 79.0924 48.67C80.0113 48.9385 80.7074 49.4108 81.1808 50.0589C81.6449 50.7163 81.8862 51.5311 81.8862 52.5034ZM77.6631 54.3552C77.6631 54.6422 77.7466 54.883 77.9044 55.0867C78.0622 55.2904 78.2942 55.4293 78.582 55.5126C78.7676 55.5682 78.9439 55.596 79.1017 55.5867C79.2688 55.5867 79.4266 55.5589 79.5936 55.5126C79.6401 55.17 79.6772 54.8645 79.7143 54.5867C79.7421 54.3089 79.7607 54.0404 79.77 53.7811C79.0646 53.5589 78.5356 53.4941 78.1829 53.5867C77.8394 53.6793 77.6631 53.9385 77.6631 54.3552Z" fill="#00FF00"/>
<path d="M89.4327 51.5498C89.3585 52.1794 88.8944 52.7072 88.3653 53.0591C87.8363 53.4109 87.233 53.6424 86.6854 53.9757C86.4533 54.1146 86.1935 54.3276 85.9707 54.5868C86.6204 55.1609 86.936 55.7813 86.8896 56.3739C86.8896 56.4017 86.8803 56.4294 86.8803 56.4572C86.9453 56.3832 87.0102 56.3091 87.0845 56.2535C87.5022 55.9109 87.9477 55.6517 88.3004 55.3183C88.6531 54.9943 88.9408 54.6424 89.1171 54.2998C89.2935 53.9572 89.3677 53.6331 89.4049 53.4109C89.4234 53.2998 89.4327 53.2072 89.4327 53.1517C89.442 53.0868 89.442 53.0591 89.442 53.0591C89.442 53.0591 89.442 53.0868 89.442 53.1517C89.442 53.2165 89.4327 53.2998 89.4327 53.4202C89.4141 53.6424 89.3585 53.9757 89.1914 54.3369C89.0336 54.698 88.7552 55.0869 88.4117 55.4387C88.0683 55.7998 87.6228 56.0961 87.2516 56.448C87.0659 56.6239 86.9081 56.8091 86.7875 57.0128C86.6668 57.2165 86.5926 57.448 86.574 57.6609C86.5647 57.698 86.5647 57.7443 86.5647 57.7813C86.5647 57.7906 86.574 57.8091 86.574 57.8183C86.6483 58.0961 86.806 58.3369 87.0474 58.4943C87.5578 58.8369 88.2632 58.7628 88.783 58.4943C89.5534 58.0961 89.8968 57.1702 90.036 56.3183C90.3052 54.7165 90.0917 53.0313 89.4327 51.5498Z" fill="#00FF00"/>
<path d="M85.8125 54.7631C85.794 54.7446 85.7847 54.7354 85.7661 54.7168C84.8565 53.9298 83.7149 53.402 82.5269 53.2354C82.8981 53.5316 83.0466 54.0224 83.0652 54.4946C83.0838 54.9668 82.9909 55.4298 82.9909 55.902C82.9909 56.2909 83.1209 56.8372 83.39 57.2261C83.6035 57.5502 83.9191 57.7724 84.3182 57.7446C84.3832 57.7354 84.4481 57.7261 84.5038 57.6983C84.9957 57.4391 84.6338 56.9298 84.5781 56.5409C84.5224 56.152 84.5409 55.7631 84.4667 55.4113C84.4017 55.0594 84.2903 54.7446 84.1418 54.4946C83.9933 54.2446 83.8263 54.0779 83.6963 53.9668C83.6314 53.9113 83.5757 53.8742 83.5385 53.8465C83.5014 53.8187 83.4829 53.8094 83.4829 53.8094C83.4829 53.8094 83.5014 53.8187 83.5385 53.8465C83.5757 53.8742 83.6314 53.9113 83.6963 53.9576C83.8263 54.0594 84.0212 54.2261 84.179 54.4668C84.346 54.7076 84.4853 55.0317 84.5688 55.3835C84.6616 55.7446 84.6802 56.1335 84.7544 56.5039C84.7915 56.6891 84.8472 56.865 84.9308 57.0131C85.0143 57.1705 85.1257 57.3002 85.2556 57.402C85.2835 57.4205 85.302 57.4391 85.3299 57.4483C85.3392 57.4483 85.3484 57.4576 85.3577 57.4576C85.5619 57.5224 85.7754 57.5131 85.9703 57.4205C86.2302 57.3002 86.4251 57.0687 86.5365 56.8094C86.6014 56.652 86.6386 56.4946 86.6571 56.3279C86.6943 55.7354 86.2859 55.1798 85.8125 54.7631Z" fill="#00FF00"/>
<path d="M85.5713 53.9855C85.7291 53.9762 85.8683 53.9114 85.989 53.8003C85.9983 53.791 85.9983 53.791 86.0076 53.7818C86.0168 53.7633 86.0261 53.7447 86.0354 53.7262C86.0818 53.6151 86.1097 53.4947 86.1097 53.3651C86.1097 53.2355 86.0911 53.0966 86.054 52.967C85.9797 52.6984 85.8498 52.4392 85.7848 52.1707C85.7198 51.9114 85.7013 51.6521 85.7291 51.4299C85.757 51.2169 85.8219 51.041 85.8683 50.9299C85.8962 50.8744 85.9147 50.8281 85.9333 50.8003C85.9519 50.7725 85.9612 50.754 85.9612 50.754C85.9612 50.754 85.9519 50.7725 85.9426 50.8003C85.924 50.8281 85.9055 50.8744 85.8869 50.9299C85.8405 51.041 85.7848 51.2169 85.7755 51.4299C85.7662 51.6429 85.8034 51.8836 85.8776 52.1429C85.9519 52.3929 86.0911 52.6429 86.1932 52.9207C86.2953 53.1984 86.2303 53.6521 86.648 53.6521C86.6944 53.6521 86.7408 53.6336 86.7872 53.6151C87.0564 53.4947 87.1863 53.2447 87.2142 52.9577C87.2513 52.6058 87.1585 52.2077 87.0193 51.9484C86.8522 51.6429 86.6294 51.3651 86.4809 51.0503C86.3324 50.7355 86.2582 50.3558 86.3974 50.041C85.6734 50.5595 85.1073 51.291 84.7824 52.1244C84.6061 52.5688 84.5132 53.0966 84.7638 53.504C84.9216 53.7725 85.2279 54.004 85.5713 53.9855Z" fill="#00FF00"/>
<path d="M9.78603 51.5498C9.86029 52.1794 10.3244 52.7072 10.8534 53.0591C11.3825 53.4109 11.9857 53.6424 12.5334 53.9757C12.7654 54.1146 13.0253 54.3276 13.248 54.5868C12.5983 55.1609 12.2828 55.7813 12.3292 56.3739C12.3292 56.4017 12.3384 56.4294 12.3384 56.4572C12.2735 56.3832 12.2085 56.3091 12.1343 56.2535C11.7166 55.9109 11.2711 55.6517 10.9184 55.3183C10.5657 54.9943 10.278 54.6424 10.1016 54.2998C9.92526 53.9572 9.85101 53.6331 9.81388 53.4109C9.79532 53.2998 9.78603 53.2072 9.78603 53.1517C9.77675 53.0868 9.77675 53.0591 9.77675 53.0591C9.77675 53.0591 9.77675 53.0868 9.77675 53.1517C9.77675 53.2165 9.78603 53.2998 9.78603 53.4202C9.8046 53.6424 9.86029 53.9757 10.0274 54.3369C10.1851 54.698 10.4636 55.0869 10.807 55.4387C11.1504 55.7998 11.5959 56.0961 11.9672 56.448C12.1528 56.6239 12.3106 56.8091 12.4313 57.0128C12.5519 57.2165 12.6262 57.448 12.6447 57.6609C12.654 57.698 12.654 57.7443 12.654 57.7813C12.654 57.7906 12.6447 57.8091 12.6447 57.8183C12.5705 58.0961 12.4127 58.3369 12.1714 58.4943C11.6609 58.8369 10.9555 58.7628 10.4357 58.4943C9.66537 58.0961 9.32196 57.1702 9.18274 56.3183C8.91357 54.7165 9.12705 53.0313 9.78603 51.5498Z" fill="#00FF00"/>
<path d="M13.3982 54.7631C13.4168 54.7446 13.426 54.7354 13.4446 54.7168C14.3542 53.9298 15.4958 53.402 16.6838 53.2354C16.3126 53.5316 16.1641 54.0224 16.1455 54.4946C16.1269 54.9668 16.2198 55.4298 16.2198 55.902C16.2198 56.2909 16.0898 56.8372 15.8207 57.2261C15.5979 57.5502 15.2916 57.7724 14.8925 57.7446C14.8275 57.7354 14.7626 57.7261 14.7069 57.6983C14.215 57.4391 14.5769 56.9298 14.6326 56.5409C14.6883 56.152 14.6698 55.7631 14.744 55.4113C14.809 55.0594 14.9204 54.7446 15.0689 54.4946C15.2174 54.2446 15.3844 54.0779 15.5144 53.9668C15.5793 53.9113 15.635 53.8742 15.6722 53.8465C15.7093 53.8187 15.7278 53.8094 15.7278 53.8094C15.7278 53.8094 15.7093 53.8187 15.6722 53.8465C15.635 53.8742 15.5793 53.9113 15.5144 53.9576C15.3844 54.0594 15.1895 54.2261 15.0317 54.4668C14.8647 54.7076 14.7254 55.0317 14.6419 55.3835C14.5491 55.7446 14.5305 56.1335 14.4563 56.5039C14.4192 56.6891 14.3635 56.865 14.2799 57.0131C14.1964 57.1705 14.085 57.3002 13.9551 57.402C13.9272 57.4205 13.9087 57.4391 13.8808 57.4483C13.8715 57.4483 13.8623 57.4576 13.853 57.4576C13.6488 57.5224 13.4353 57.5131 13.2404 57.4205C12.9805 57.3002 12.7856 57.0687 12.6742 56.8094C12.6093 56.652 12.5721 56.4946 12.5536 56.3279C12.5164 55.7354 12.9341 55.1798 13.3982 54.7631Z" fill="#00FF00"/>
<path d="M13.6491 53.9855C13.4913 53.9762 13.3521 53.9114 13.2314 53.8003C13.2221 53.791 13.2221 53.791 13.2129 53.7818C13.2036 53.7633 13.1943 53.7447 13.185 53.7262C13.1386 53.6151 13.1108 53.4947 13.1108 53.3651C13.1108 53.2355 13.1293 53.0966 13.1665 52.967C13.2407 52.6984 13.3706 52.4392 13.4356 52.1707C13.5006 51.9114 13.5191 51.6521 13.4913 51.4299C13.4635 51.2169 13.3985 51.041 13.3521 50.9299C13.3242 50.8744 13.3057 50.8281 13.2871 50.8003C13.2685 50.7725 13.2593 50.754 13.2593 50.754C13.2593 50.754 13.2685 50.7725 13.2778 50.8003C13.2964 50.8281 13.315 50.8744 13.3335 50.9299C13.3799 51.041 13.4356 51.2169 13.4449 51.4299C13.4542 51.6429 13.4171 51.8836 13.3428 52.1429C13.2685 52.3929 13.1293 52.6429 13.0272 52.9207C12.9251 53.1984 12.9901 53.6521 12.5724 53.6521C12.526 53.6521 12.4796 53.6336 12.4332 53.6151C12.164 53.4947 12.0341 53.2447 12.0063 52.9577C11.9691 52.6058 12.062 52.2077 12.2012 51.9484C12.3682 51.6429 12.591 51.3651 12.7395 51.0503C12.888 50.7355 12.9623 50.3558 12.823 50.041C13.547 50.5595 14.1132 51.291 14.438 52.1244C14.6144 52.5688 14.7072 53.0966 14.4566 53.504C14.2988 53.7725 13.9925 54.004 13.6491 53.9855Z" fill="#00FF00"/>
</svg>
