<svg width="304" height="58" viewBox="0 0 304 58" fill="none" xmlns="http://www.w3.org/2000/svg">
<path d="M52.042 42.6615C51.2796 46.0744 49.9974 48.8357 48.1608 50.9765C46.3588 53.1172 44.1063 54.5444 41.4726 55.227C38.735 55.9406 36.3785 55.5373 34.3686 54.017C32.3934 52.4657 31.1805 50.1387 30.7646 46.9741C31.631 46.1054 32.5666 45.3297 33.6062 44.6161C34.6459 43.9336 35.7894 43.3441 37.037 42.8166C37.5568 46.0123 38.1112 48.1221 38.7003 49.1769C39.3241 50.2318 40.1904 50.6041 41.2994 50.3249C42.6509 49.9836 43.6212 48.8667 44.2449 47.0362C44.8687 45.2056 45.1806 42.5064 45.1806 38.9384C45.1806 35.4945 45.042 31.7404 44.7301 27.645C44.4528 23.5496 44.037 19.6093 43.4825 15.8241C44.141 15.2967 44.938 14.8003 45.943 14.3039C46.9133 13.8385 47.9529 13.4351 48.9925 13.1559C49.7202 12.9387 50.4133 12.7836 51.0717 12.7215C51.7301 12.6285 52.3885 12.5664 53.047 12.5664C53.2202 14.3349 53.3588 16.2275 53.4975 18.2131C53.6014 20.2298 53.6707 22.2155 53.6707 24.2321C53.6707 28.3896 53.5321 31.8335 53.2895 34.5948C53.047 37.3251 52.6311 39.9933 52.042 42.6615Z" fill="#003300"/>
<path d="M68.3986 45.2055C65.0372 45.857 62.4728 45.2365 60.7055 43.2509C58.9381 41.2652 58.0718 38.0695 58.0718 33.6639C58.0718 31.3369 58.3144 28.8549 58.8342 26.2177C59.354 23.6115 59.9084 21.7189 60.4629 20.633C61.1213 20.3538 61.7451 20.1056 62.3688 19.9194C62.9926 19.7022 63.5817 19.5471 64.1708 19.423C64.9679 19.2679 65.6956 19.1748 66.2847 19.1438C66.8738 19.1127 67.359 19.1748 67.6709 19.2679C67.2204 21.0674 66.9085 22.9599 66.6659 24.9146C66.458 26.9002 66.3194 28.8549 66.3194 30.8405C66.3194 33.9431 66.5966 36.3631 67.1857 38.1006C67.7402 39.838 68.5372 40.6137 69.5768 40.3965C70.7204 40.1793 71.5867 38.9693 72.1758 36.7665C72.7649 34.5636 73.0768 31.6162 73.0768 27.9551C73.0768 26.5279 73.0075 25.0697 72.8689 23.5805C72.7303 22.0602 72.5917 21.0363 72.4184 20.4779C73.4927 19.8884 74.7749 19.3299 76.3343 18.8025C77.8937 18.275 79.3838 17.9027 80.8046 17.6855C80.9779 18.4922 81.1165 19.423 81.2204 20.571C81.3244 21.6879 81.3591 22.8358 81.3591 24.0458C81.3591 30.22 80.2501 35.0911 78.0323 38.659C75.9184 42.196 72.661 44.3678 68.3986 45.2055Z" fill="#003300"/>
<path d="M93.5222 34.3153C93.5222 35.3702 93.5569 36.5802 93.5915 37.9764C93.6608 39.3725 93.6955 40.6136 93.7995 41.6995C93.0024 42.0408 91.9282 42.382 90.6113 42.6923C89.2945 43.0336 88.0816 43.2818 86.938 43.4369C86.5222 40.0551 86.141 35.6184 85.7945 30.0648C85.4479 24.5111 85.2747 19.7952 85.2747 15.948C85.9331 15.5447 86.8341 15.1724 87.943 14.8311C89.0519 14.4898 90.2301 14.2416 91.4084 14.0554C91.9282 13.9934 92.448 13.9313 93.0024 13.9003C93.5569 13.8693 94.146 13.8693 94.7698 13.9003C94.7005 14.4588 94.5965 15.1724 94.5272 15.948C94.4232 16.7547 94.3539 17.6544 94.2846 18.7093C95.3935 16.9719 96.6411 15.6377 97.9926 14.6759C99.3787 13.7141 100.869 13.1557 102.498 12.9695C104.993 12.6903 106.829 13.3108 108.042 14.769C109.255 16.2583 109.844 18.6162 109.844 21.8429C109.844 24.387 109.602 27.3035 109.151 30.6543C108.701 33.974 108.181 36.5802 107.661 38.4418C106.552 38.5348 105.304 38.5659 103.953 38.5969C102.601 38.6279 101.146 38.5659 99.6559 38.5038C100.28 35.3702 100.765 32.4538 101.111 29.7855C101.458 27.1173 101.597 24.8214 101.597 22.8978C101.597 21.4396 101.389 20.4468 100.973 19.8573C100.557 19.2678 99.9332 19.0506 99.0322 19.1437C98.0619 19.2678 97.1262 19.8573 96.1906 20.9121C95.2549 21.967 94.4579 23.3632 93.7995 25.1006C93.6955 26.6209 93.5915 28.2032 93.5569 29.8166C93.5569 31.3679 93.5222 32.8881 93.5222 34.3153Z" fill="#003300"/>
<path d="M138.156 28.5439C138.156 35.2455 136.943 40.3647 134.552 43.9637C132.161 47.5627 128.731 49.4863 124.295 49.7656C121.28 49.9517 118.889 49.3932 117.087 48.0591C115.32 46.725 114.315 44.9255 114.072 42.5986C115.008 41.885 116.082 41.2645 117.295 40.737C118.508 40.2096 119.755 39.8063 121.037 39.558C121.384 41.6368 121.834 43.126 122.458 44.0258C123.082 44.9255 123.914 45.3289 124.953 45.2668C126.27 45.1737 127.31 44.243 128.072 42.4745C128.869 40.675 129.389 38.0688 129.632 34.5629C128.938 35.4316 128.107 36.0832 127.24 36.5175C126.339 36.9519 125.369 37.2311 124.295 37.2932C121.072 37.5103 118.473 36.6106 116.498 34.5629C114.557 32.5152 113.587 29.6918 113.587 26.0928C113.587 21.563 114.8 17.9951 117.226 15.3889C119.651 12.7827 123.151 11.2935 127.76 11.0453C128.973 10.9832 130.359 11.0453 131.884 11.2004C133.409 11.3865 134.83 11.6348 136.146 12.0071C136.701 13.7445 137.186 16.2266 137.567 19.4533C137.948 22.742 138.156 25.7515 138.156 28.5439ZM121.834 24.2002C121.834 26.8374 122.285 28.9162 123.186 30.4054C124.087 31.8947 125.231 32.6083 126.651 32.5152C127.275 32.4842 127.864 32.2049 128.419 31.7395C128.973 31.2431 129.424 30.5295 129.839 29.5987C129.805 27.3028 129.632 24.9138 129.32 22.4318C129.008 19.9497 128.627 17.7469 128.141 15.7922C127.864 15.7612 127.622 15.7612 127.344 15.7302C127.067 15.6991 126.825 15.6991 126.547 15.7302C124.953 15.8233 123.74 16.5679 122.978 17.964C122.25 19.3602 121.834 21.4389 121.834 24.2002Z" fill="#003300"/>
<path d="M151.602 38.9685C150.944 39.1547 149.869 39.3408 148.379 39.4959C146.889 39.6511 145.607 39.7441 144.429 39.7752C143.84 33.3218 143.424 26.7133 143.181 19.9807C142.939 13.248 142.904 7.01185 143.043 1.30309C143.701 0.93078 144.498 0.620521 145.434 0.372314C146.369 0.124107 147.34 0 148.345 0C149.038 0 149.731 0.031024 150.424 0.124102C151.082 0.217179 151.775 0.341287 152.503 0.496416C152.018 4.68491 151.706 10.5488 151.567 18.1191C151.394 25.6584 151.394 32.6082 151.602 38.9685Z" fill="#003300"/>
<path d="M173.572 28.2037C174.647 28.4209 175.756 28.8242 176.864 29.4137C177.973 30.0032 178.909 30.6547 179.671 31.3683C178.978 33.1678 177.384 34.7191 174.993 36.0222C172.567 37.3253 169.83 37.9148 166.711 37.8217C163.176 37.6976 160.404 36.6427 158.429 34.564C156.453 32.5163 155.448 29.755 155.448 26.2801C155.448 21.9054 156.939 17.9962 159.884 14.6454C162.864 11.2946 166.295 9.68125 170.246 9.83638C173.018 9.96048 175.201 10.7361 176.795 12.1633C178.424 13.5905 179.221 15.421 179.221 17.6859C179.221 18.7408 179.117 19.8577 178.874 21.0677C178.632 22.2778 178.32 23.3637 177.904 24.3255C176.934 24.6667 175.756 24.8839 174.335 24.977C172.914 25.0701 171.181 25.1011 169.067 25.008C168.201 24.977 167.335 24.8839 166.468 24.7598C165.602 24.6357 164.701 24.4496 163.8 24.2324C163.765 24.7598 163.731 25.1632 163.731 25.4114C163.696 25.6906 163.696 25.9078 163.696 26.156C163.696 28.3899 164.077 30.1583 164.84 31.4924C165.602 32.7955 166.642 33.4781 167.993 33.5401C169.033 33.5712 170.107 33.0437 171.216 31.9268C172.359 30.8409 173.122 29.5999 173.572 28.2037ZM164.493 20.4783C165.255 20.6954 165.983 20.8816 166.746 21.0057C167.508 21.1298 168.236 21.2229 168.894 21.2229C169.31 21.2539 169.726 21.2539 170.107 21.2229C170.523 21.2229 170.8 21.1919 170.939 21.1608C171.216 20.3231 171.389 19.5165 171.528 18.8029C171.666 18.0582 171.736 17.4067 171.736 16.8172C171.736 15.8244 171.562 15.0798 171.216 14.6144C170.869 14.149 170.35 13.8697 169.587 13.8387C168.548 13.8077 167.543 14.3662 166.642 15.5762C165.741 16.7862 165.013 18.4305 164.493 20.4783Z" fill="#003300"/>
<path d="M214.533 39.3096C213.424 39.4026 212.246 39.4337 211.033 39.4026C209.82 39.3716 208.434 39.2785 206.874 39.0924C206.944 34.4385 206.84 29.2262 206.528 23.4553C206.216 17.6535 205.765 12.5032 205.142 8.03547C204.033 8.00445 202.785 7.97343 201.434 7.9424C200.048 7.91138 197.968 7.88035 195.161 7.91137C194.78 6.91855 194.503 5.95674 194.33 4.99494C194.156 4.03314 194.052 3.13339 194.122 2.32672C199.458 1.89235 204.379 1.79927 208.85 1.98543C213.32 2.17158 218.379 2.69903 223.959 3.62981C224.097 4.09519 224.236 4.59161 224.305 5.15007C224.409 5.70854 224.444 6.29803 224.444 6.91855C224.444 7.35291 224.409 7.78727 224.374 8.25266C224.305 8.71805 224.201 9.30754 224.063 10.0211C222.815 9.80396 221.498 9.61779 220.112 9.43164C218.726 9.24548 216.82 8.99728 214.394 8.71805C214.706 11.5104 214.914 14.3648 215.018 17.2812C215.157 20.2286 215.226 23.3002 215.226 26.4959C215.226 28.1713 215.191 30.0018 215.087 31.9875C214.983 33.9111 214.775 36.3621 214.533 39.3096Z" fill="#003300"/>
<path d="M239.934 36.7352C241.009 37.1075 242.083 37.697 243.157 38.4726C244.266 39.2483 245.167 40.0239 245.895 40.8616C245.202 42.568 243.677 43.8401 241.286 44.7709C238.895 45.7016 236.192 45.8568 233.177 45.2983C229.677 44.6468 226.974 43.1265 225.033 40.7685C223.093 38.4106 222.122 35.4941 222.122 32.0503C222.122 27.6756 223.578 24.0145 226.523 21.0981C229.434 18.1817 232.865 17.1268 236.746 17.9025C239.449 18.4299 241.598 19.5778 243.192 21.2532C244.786 22.9286 245.583 24.9143 245.583 27.1482C245.583 28.203 245.479 29.32 245.236 30.4679C244.994 31.6469 244.682 32.6708 244.266 33.5705C243.33 33.7567 242.152 33.7877 240.766 33.6946C239.38 33.5705 237.647 33.3223 235.603 32.919C234.771 32.7639 233.905 32.5467 233.038 32.2674C232.172 32.0192 231.306 31.6779 230.439 31.3367C230.405 31.8641 230.37 32.2364 230.37 32.5156C230.335 32.7639 230.335 33.0121 230.335 33.2603C230.335 35.4941 230.716 37.3246 231.479 38.7518C232.241 40.179 233.281 41.0167 234.598 41.2649C235.637 41.4511 236.677 41.1098 237.751 40.148C238.756 39.1862 239.518 38.0693 239.934 36.7352ZM231.028 27.6136C231.756 27.9548 232.518 28.2341 233.246 28.4823C234.009 28.7305 234.702 28.9166 235.36 29.0407C235.776 29.1338 236.157 29.1959 236.573 29.2269C236.989 29.289 237.266 29.2889 237.405 29.2889C237.647 28.4823 237.855 27.7377 237.994 26.993C238.132 26.2794 238.202 25.6279 238.202 25.0384C238.202 24.0456 238.028 23.301 237.716 22.7735C237.37 22.2461 236.85 21.9048 236.122 21.7497C235.083 21.5325 234.112 21.9668 233.211 23.0217C232.276 24.1076 231.548 25.6279 231.028 27.6136Z" fill="#003300"/>
<path d="M272.266 36.4561C272.266 38.5658 271.954 41.3272 271.331 44.771C270.707 48.2149 269.91 51.4726 268.974 54.6062C267.935 54.327 266.86 53.9547 265.717 53.5203C264.608 53.086 263.568 52.6516 262.633 52.1552C262.771 51.5036 262.875 51.0072 262.944 50.697C263.014 50.3867 263.048 50.1075 263.118 49.8593C262.355 50.0454 261.524 50.1385 260.553 50.0764C259.618 50.0144 258.613 49.8593 257.573 49.6111C254.766 48.8975 252.548 47.7185 250.85 46.0121C249.152 44.3056 248.321 42.382 248.321 40.2102C248.321 37.9453 249.36 36.4561 251.405 35.8045C253.449 35.153 256.534 35.3081 260.553 36.363C261.316 36.5492 261.974 36.7353 262.598 36.9215C263.187 37.1076 263.811 37.2938 264.469 37.511C264.469 37.3869 264.469 37.2628 264.469 37.1387C264.469 37.0146 264.469 36.8904 264.469 36.7663C264.469 33.7568 264.192 31.554 263.672 30.1268C263.118 28.6996 262.251 27.8309 261.073 27.5206C259.895 27.2104 258.855 27.5517 258.024 28.5135C257.192 29.4753 256.741 30.8714 256.707 32.6709C254.939 32.2055 253.449 31.523 252.306 30.6232C251.128 29.7235 250.296 28.6996 249.811 27.4896C250.4 25.7211 251.821 24.4181 254.073 23.6424C256.326 22.8668 258.925 22.8357 261.836 23.6114C265.266 24.5111 267.865 26.0934 269.633 28.2653C271.365 30.4681 272.266 33.1984 272.266 36.4561ZM256.499 42.6613C256.499 43.6231 256.811 44.4297 257.4 45.1123C257.989 45.7949 258.855 46.2603 259.93 46.5395C260.623 46.7256 261.281 46.8187 261.87 46.7877C262.494 46.7877 263.083 46.6946 263.707 46.5395C263.88 45.3915 264.019 44.3677 264.157 43.4369C264.261 42.5061 264.331 41.6064 264.365 40.7377C261.732 39.993 259.756 39.7759 258.439 40.0861C257.157 40.3964 256.499 41.2651 256.499 42.6613Z" fill="#003300"/>
<path d="M300.389 33.2598C300.112 35.3695 298.379 37.138 296.404 38.317C294.429 39.496 292.176 40.2716 290.132 41.3885C289.265 41.8539 288.295 42.5675 287.463 43.4362C289.889 45.3598 291.067 47.4386 290.894 49.4242C290.894 49.5173 290.859 49.6104 290.859 49.7035C291.102 49.4553 291.345 49.2071 291.622 49.0209C293.181 47.8729 294.845 47.0042 296.161 45.8873C297.478 44.8014 298.553 43.6224 299.211 42.4744C299.869 41.3265 300.147 40.2406 300.285 39.496C300.355 39.1237 300.389 38.8134 300.389 38.6272C300.424 38.4101 300.424 38.317 300.424 38.317C300.424 38.317 300.424 38.4101 300.424 38.6272C300.424 38.8444 300.389 39.1236 300.389 39.527C300.32 40.2716 300.112 41.3885 299.488 42.5986C298.899 43.8086 297.859 45.1116 296.577 46.2906C295.295 47.5006 293.632 48.4935 292.246 49.6724C291.553 50.2619 290.963 50.8825 290.513 51.565C290.062 52.2476 289.785 53.0232 289.716 53.7368C289.681 53.8609 289.681 54.0161 289.681 54.1402C289.681 54.1712 289.716 54.2332 289.716 54.2643C289.993 55.195 290.582 56.0017 291.483 56.5291C293.389 57.6771 296.023 57.4289 297.963 56.5291C300.84 55.195 302.122 52.0925 302.642 49.2381C303.647 43.8706 302.85 38.2239 300.389 33.2598Z" fill="#003300"/>
<path d="M286.875 44.0255C286.805 43.9635 286.771 43.9324 286.701 43.8704C283.305 41.2332 279.043 39.4647 274.607 38.9062C275.993 39.8991 276.548 41.5435 276.617 43.1258C276.686 44.7081 276.34 46.2594 276.34 47.8417C276.34 49.1448 276.825 50.9753 277.83 52.2784C278.627 53.3643 279.805 54.1089 281.295 54.0159C281.538 53.9848 281.781 53.9538 281.988 53.8607C283.825 52.992 282.474 51.2856 282.266 49.9825C282.058 48.6794 282.127 47.3763 281.85 46.1973C281.607 45.0183 281.191 43.9635 280.637 43.1258C280.082 42.2881 279.459 41.7296 278.974 41.3573C278.731 41.1711 278.523 41.047 278.384 40.954C278.246 40.8609 278.177 40.8299 278.177 40.8299C278.177 40.8299 278.246 40.8609 278.384 40.954C278.523 41.047 278.731 41.1711 278.974 41.3263C279.459 41.6676 280.186 42.226 280.776 43.0327C281.399 43.8394 281.919 44.9253 282.231 46.1043C282.578 47.3143 282.647 48.6174 282.924 49.8584C283.063 50.4789 283.271 51.0684 283.582 51.5648C283.894 52.0923 284.31 52.5266 284.795 52.8679C284.899 52.9299 284.969 52.992 285.073 53.023C285.107 53.023 285.142 53.0541 285.177 53.0541C285.939 53.2712 286.736 53.2402 287.464 52.93C288.434 52.5266 289.162 51.751 289.578 50.8822C289.82 50.3548 289.959 49.8274 290.028 49.2689C290.167 47.2832 288.642 45.4217 286.875 44.0255Z" fill="#003300"/>
<path d="M285.973 41.4201C286.563 41.3891 287.082 41.1719 287.533 40.7996C287.567 40.7686 287.567 40.7686 287.602 40.7376C287.637 40.6755 287.671 40.6135 287.706 40.5514C287.879 40.1791 287.983 39.7758 287.983 39.3414C287.983 38.9071 287.914 38.4417 287.775 38.0073C287.498 37.1075 287.013 36.2388 286.77 35.3391C286.528 34.4703 286.459 33.6016 286.563 32.857C286.666 32.1434 286.909 31.5539 287.082 31.1816C287.186 30.9955 287.256 30.8403 287.325 30.7472C287.394 30.6542 287.429 30.5921 287.429 30.5921C287.429 30.5921 287.394 30.6542 287.36 30.7472C287.29 30.8403 287.221 30.9955 287.152 31.1816C286.978 31.5539 286.77 32.1434 286.736 32.857C286.701 33.5706 286.84 34.3773 287.117 35.246C287.394 36.0837 287.914 36.9214 288.295 37.8522C288.676 38.7829 288.434 40.3032 289.993 40.3032C290.167 40.3032 290.34 40.2412 290.513 40.1791C291.518 39.7758 292.003 38.9381 292.107 37.9763C292.246 36.7973 291.899 35.4632 291.379 34.5945C290.756 33.5706 289.924 32.6398 289.369 31.585C288.815 30.5301 288.538 29.258 289.058 28.2031C286.355 29.9406 284.241 32.3916 283.028 35.1839C282.369 36.6732 282.023 38.4417 282.959 39.8068C283.548 40.7066 284.691 41.4822 285.973 41.4201Z" fill="#003300"/>
<path d="M2.67589 33.2598C2.95312 35.3695 4.6858 37.138 6.66106 38.317C8.63632 39.496 10.8888 40.2716 12.9334 41.3885C13.7997 41.8539 14.77 42.5675 15.6017 43.4363C13.176 45.3599 11.9977 47.4386 12.171 49.4243C12.171 49.5173 12.2057 49.6104 12.2057 49.7035C11.9631 49.4553 11.7205 49.2071 11.4433 49.0209C9.88386 47.873 8.22048 47.0042 6.90364 45.8873C5.5868 44.8014 4.51254 43.6224 3.85412 42.4744C3.1957 41.3265 2.91847 40.2406 2.77985 39.496C2.71055 39.1237 2.67589 38.8134 2.67589 38.6272C2.64123 38.4101 2.64124 38.317 2.64124 38.317C2.64124 38.317 2.64124 38.4101 2.64124 38.6272C2.64124 38.8444 2.67589 39.1237 2.67589 39.527C2.74519 40.2716 2.95312 41.3885 3.57688 42.5986C4.166 43.8086 5.20561 45.1117 6.48779 46.2906C7.76998 47.5006 9.43336 48.4935 10.8195 49.6725C11.5126 50.2619 12.1017 50.8825 12.5522 51.565C13.0027 52.2476 13.2799 53.0232 13.3492 53.7368C13.3839 53.8609 13.3839 54.0161 13.3839 54.1402C13.3839 54.1712 13.3492 54.2333 13.3492 54.2643C13.072 55.1951 12.4829 56.0017 11.5819 56.5292C9.67594 57.6771 7.04225 57.4289 5.10164 56.5292C2.22539 55.1951 0.943203 52.0925 0.423397 49.2381C-0.58156 43.8706 0.215475 38.2239 2.67589 33.2598Z" fill="#003300"/>
<path d="M16.1562 44.0255C16.2255 43.9635 16.2602 43.9324 16.3295 43.8704C19.7256 41.2332 23.988 39.4647 28.4236 38.9062C27.0375 39.8991 26.483 41.5435 26.4137 43.1258C26.3444 44.7081 26.6909 46.2594 26.6909 47.8417C26.6909 49.1448 26.2058 50.9753 25.2008 52.2784C24.3691 53.3643 23.2256 54.1089 21.7355 54.0159C21.4929 53.9848 21.2503 53.9538 21.0424 53.8607C19.2057 52.992 20.5572 51.2856 20.7652 49.9825C20.9731 48.6794 20.9038 47.3763 21.181 46.1973C21.4236 45.0183 21.8394 43.9635 22.3939 43.1258C22.9483 42.2881 23.5721 41.7296 24.0573 41.3573C24.2998 41.1711 24.5078 41.047 24.6464 40.954C24.785 40.8609 24.8543 40.8299 24.8543 40.8299C24.8543 40.8299 24.785 40.8609 24.6464 40.954C24.5078 41.047 24.2998 41.1711 24.0573 41.3263C23.5721 41.6676 22.8444 42.226 22.2553 43.0327C21.6315 43.8394 21.1117 44.9253 20.7998 46.1043C20.4533 47.3143 20.384 48.6174 20.1067 49.8584C19.9681 50.4789 19.7602 51.0684 19.4483 51.5648C19.1364 52.0923 18.7206 52.5266 18.2354 52.8679C18.1315 52.9299 18.0622 52.992 17.9582 53.023C17.9236 53.023 17.8889 53.0541 17.8542 53.0541C17.0919 53.2712 16.2948 53.2402 15.5671 52.93C14.5968 52.5266 13.8691 51.751 13.4532 50.8822C13.2107 50.3548 13.072 49.8274 13.0027 49.2689C12.8641 47.2832 14.4235 45.4217 16.1562 44.0255Z" fill="#003300"/>
<path d="M17.0919 41.4201C16.5028 41.3891 15.9829 41.1719 15.5325 40.7996C15.4978 40.7686 15.4978 40.7686 15.4632 40.7376C15.4285 40.6755 15.3938 40.6135 15.3592 40.5514C15.1859 40.1791 15.082 39.7758 15.082 39.3414C15.082 38.9071 15.1513 38.4417 15.2899 38.0073C15.5671 37.1075 16.0523 36.2388 16.2948 35.3391C16.5374 34.4703 16.6067 33.6016 16.5028 32.857C16.3988 32.1434 16.1562 31.5539 15.983 31.1816C15.879 30.9955 15.8097 30.8403 15.7404 30.7472C15.6711 30.6542 15.6364 30.5921 15.6364 30.5921C15.6364 30.5921 15.6711 30.6542 15.7057 30.7472C15.775 30.8403 15.8443 30.9955 15.9136 31.1816C16.0869 31.5539 16.2948 32.1434 16.3295 32.857C16.3641 33.5706 16.2255 34.3773 15.9483 35.246C15.6711 36.0837 15.1513 36.9214 14.7701 37.8522C14.3889 38.7829 14.6315 40.3032 13.072 40.3032C12.8988 40.3032 12.7255 40.2412 12.5522 40.1791C11.5473 39.7758 11.0621 38.9381 10.9582 37.9763C10.8196 36.7973 11.1661 35.4632 11.6859 34.5945C12.3097 33.5706 13.1414 32.6398 13.6958 31.585C14.2503 30.5301 14.5275 29.258 14.0077 28.2031C16.7107 29.9406 18.8246 32.3916 20.0374 35.1839C20.6958 36.6732 21.0424 38.4417 20.1067 39.8068C19.5176 40.7066 18.3741 41.4822 17.0919 41.4201Z" fill="#003300"/>
</svg>
