<svg width="1100" height="1100" viewBox="0 0 1100 1100" fill="none" xmlns="http://www.w3.org/2000/svg">
<path d="M938.649 498.05L938.449 497.85C922.549 477.95 916.649 451.85 922.349 427.05C931.149 388.95 912.249 349.95 877.049 333.15C854.049 322.15 837.349 301.25 831.649 276.35V276.25C823.049 238.25 789.249 211.25 750.349 211.25H750.249H750.049H749.949C724.549 211.25 700.449 199.65 684.649 179.75V179.65C668.449 159.25 644.149 148.15 619.349 148.15C607.049 148.15 594.649 150.85 583.049 156.55C571.549 162.15 559.149 164.95 546.649 164.95C534.249 164.95 521.749 162.15 510.249 156.55C498.649 150.95 486.149 148.15 473.949 148.15C449.149 148.15 424.849 159.25 408.649 179.65C392.849 199.55 368.749 211.15 343.349 211.15H343.249H343.049H342.949C303.949 211.15 270.249 238.15 261.649 276.15V276.25C256.049 301.15 239.349 322.05 216.249 333.05C181.049 349.85 162.249 388.95 170.949 426.95C176.649 451.75 170.749 477.85 154.849 497.75L154.649 497.95C130.349 528.35 130.349 571.65 154.649 602.05L154.849 602.25C170.749 622.15 176.649 648.25 170.949 673.05C162.149 711.15 181.049 750.15 216.249 766.95C239.249 777.95 255.949 798.85 261.649 823.75V823.85C270.249 861.85 304.049 888.85 342.949 888.85H343.049H343.249H343.349C368.749 888.85 392.849 900.45 408.649 920.35V920.45C424.849 940.85 449.149 951.95 473.949 951.95C486.249 951.95 498.649 949.25 510.249 943.55C521.749 937.95 534.149 935.15 546.649 935.15C559.049 935.15 571.549 937.95 583.049 943.55C594.649 949.15 607.149 951.95 619.349 951.95C644.149 951.95 668.449 940.85 684.649 920.45C700.449 900.55 724.549 888.95 749.949 888.95H750.049H750.249H750.349C789.349 888.95 823.049 861.95 831.649 823.95V823.85C837.249 798.95 853.949 778.05 877.049 767.05C912.249 750.25 931.049 711.15 922.349 673.15C916.649 648.35 922.549 622.25 938.449 602.35L938.649 602.15C962.949 571.75 962.949 528.55 938.649 498.05Z" fill="black"/>
<path d="M473.85 148.15C486.15 148.15 498.55 150.85 510.15 156.55C521.65 162.15 534.049 164.95 546.549 164.95C558.949 164.95 571.45 162.15 582.95 156.55C594.55 150.95 607.05 148.15 619.25 148.15C644.05 148.15 668.349 159.25 684.549 179.65V179.75C700.349 199.65 724.45 211.25 749.85 211.25H749.95H750.15H750.25C789.25 211.25 822.949 238.25 831.549 276.25V276.35C837.149 301.25 853.85 322.15 876.95 333.15C912.15 349.95 930.95 389.05 922.25 427.05C916.55 451.85 922.45 477.95 938.35 497.85L938.549 498.05C962.849 528.45 962.849 571.75 938.549 602.15L938.35 602.35C922.45 622.25 916.55 648.35 922.25 673.15C931.05 711.25 912.15 750.25 876.95 767.05C853.95 778.05 837.249 798.95 831.549 823.85V823.95C822.949 861.95 789.15 888.95 750.25 888.95H750.15H749.95H749.85C724.45 888.95 700.349 900.55 684.549 920.45C668.349 940.85 644.05 951.95 619.25 951.95C606.95 951.95 594.55 949.25 582.95 943.55C571.45 937.95 559.049 935.15 546.549 935.15C534.149 935.15 521.65 937.95 510.15 943.55C498.55 949.15 486.05 951.95 473.85 951.95C449.05 951.95 424.75 940.85 408.549 920.45V920.35C392.749 900.45 368.65 888.85 343.25 888.85H343.15H342.95H342.85C303.85 888.85 270.15 861.85 261.55 823.85V823.75C255.95 798.85 239.25 777.95 216.15 766.95C180.95 750.15 162.15 711.05 170.85 673.05C176.55 648.25 170.65 622.15 154.75 602.25L154.55 602.05C130.25 571.65 130.25 528.35 154.55 497.95L154.75 497.75C170.65 477.85 176.55 451.75 170.85 426.95C162.05 388.85 180.95 349.85 216.15 333.05C239.15 322.05 255.85 301.15 261.55 276.25V276.15C270.15 238.15 303.95 211.15 342.85 211.15H342.95H343.15H343.25C368.65 211.15 392.749 199.55 408.549 179.65C424.849 159.25 449.05 148.15 473.85 148.15ZM473.85 134.95C444.25 134.95 416.65 148.25 398.25 171.45C384.85 188.35 364.75 198.05 343.25 198.05H343.15H343.049H342.95C321.15 198.05 299.75 205.55 282.65 219.15C265.65 232.75 253.55 251.95 248.75 273.25V273.35C243.95 294.45 230.05 311.85 210.55 321.25C190.85 330.65 174.75 346.75 165.25 366.45C155.75 386.15 153.25 408.65 158.15 429.95C158.15 430.05 158.15 430.05 158.15 430.05C162.95 451.05 158.05 472.85 144.55 489.65L144.35 489.85C130.75 506.85 123.25 528.25 123.25 550.05C123.25 571.85 130.75 593.25 144.35 610.35L144.45 610.55C157.95 627.45 162.85 649.15 158.05 670.15V670.25C153.15 691.55 155.65 714.05 165.15 733.75C174.65 753.45 190.75 769.45 210.45 778.95C210.45 778.95 210.55 778.95 210.55 779.05C229.95 788.35 243.85 805.85 248.65 826.85V826.95C253.45 848.25 265.55 867.55 282.55 881.15C299.55 894.75 320.95 902.25 342.85 902.25H342.95H343.15H343.25C364.75 902.25 384.75 911.85 398.15 928.75L398.25 928.85C416.65 952.05 444.25 965.35 473.85 965.35C488.55 965.35 502.65 962.05 515.95 955.65C516.05 955.65 516.05 955.55 516.15 955.55C525.65 950.95 536.15 948.55 546.65 948.55C557.25 948.55 567.85 950.95 577.25 955.55C590.45 961.95 604.65 965.25 619.35 965.25C648.95 965.25 676.55 951.95 694.95 928.85L695.049 928.75C708.449 911.85 728.449 902.25 750.049 902.25H750.15H750.25H750.35C772.15 902.25 793.55 894.75 810.65 881.15C827.65 867.55 839.749 848.35 844.549 827.05V826.95V826.85C849.349 805.85 863.249 788.45 882.649 779.05H882.75C902.45 769.65 918.549 753.55 928.049 733.85C937.549 714.15 940.049 691.55 935.149 670.25C930.249 649.15 935.25 627.45 948.75 610.55L948.85 610.35C962.45 593.25 969.95 571.85 969.95 550.05C969.95 528.25 962.45 506.85 948.85 489.75L948.649 489.55C935.149 472.75 930.249 450.95 935.049 429.95C935.049 429.95 935.049 429.95 935.049 429.85C939.949 408.55 937.45 385.95 927.95 366.25C918.45 346.55 902.349 330.55 882.649 321.05C863.149 311.75 849.25 294.25 844.45 273.15V273.05V272.95C839.65 251.65 827.549 232.45 810.549 218.85C793.549 205.25 772.15 197.75 750.25 197.75H750.15H749.95C728.45 197.75 708.35 188.05 694.95 171.25C694.95 171.25 694.95 171.25 694.95 171.15C676.55 147.95 648.95 134.65 619.35 134.65C604.65 134.65 590.55 137.95 577.25 144.35C567.75 148.95 557.15 151.35 546.65 151.35C536.15 151.35 525.449 148.95 516.049 144.35C502.749 138.25 488.55 134.95 473.85 134.95Z" fill="#00FF00"/>
<path d="M546.65 880.85C729.29 880.85 877.35 732.791 877.35 550.15C877.35 367.509 729.29 219.45 546.65 219.45C364.009 219.45 215.95 367.509 215.95 550.15C215.95 732.791 364.009 880.85 546.65 880.85Z" fill="white"/>
<path d="M546.65 219.45C729.25 219.45 877.35 367.45 877.35 550.15C877.35 732.75 729.35 880.85 546.65 880.85C363.95 880.85 215.95 732.75 215.95 550.15C215.95 367.55 363.95 219.45 546.65 219.45ZM546.65 206.35C500.25 206.35 455.25 215.45 412.85 233.35C371.95 250.65 335.15 275.45 303.55 307.05C271.95 338.65 247.15 375.35 229.85 416.35C211.95 458.75 202.85 503.75 202.85 550.15C202.85 596.55 211.95 641.55 229.85 683.95C247.15 724.85 271.95 761.65 303.55 793.25C335.15 824.85 371.85 849.65 412.85 866.95C455.25 884.85 500.25 893.95 546.65 893.95C593.05 893.95 638.05 884.85 680.45 866.95C721.35 849.65 758.15 824.85 789.75 793.25C821.35 761.65 846.15 724.95 863.45 683.95C881.35 641.55 890.45 596.55 890.45 550.15C890.45 503.75 881.35 458.75 863.45 416.35C846.15 375.45 821.35 338.65 789.75 307.05C758.15 275.45 721.45 250.65 680.45 233.35C638.05 215.45 593.05 206.35 546.65 206.35Z" fill="#00FF00"/>
<path d="M338.25 758.55C371.55 722.35 405.35 686.65 439.55 651.45C456.55 633.75 473.85 616.35 491.05 598.75L542.95 546.45L595.25 494.55C612.85 477.35 630.25 460.05 647.95 443.05C683.15 408.85 718.85 375.05 755.05 341.75C721.75 377.95 688.05 413.65 653.75 448.85C636.75 466.55 619.45 483.95 602.25 501.55L550.35 553.85L498.05 605.75C480.45 622.95 463.05 640.25 445.35 657.25C410.15 691.45 374.45 725.25 338.25 758.55Z" fill="#FFFF00"/>
<path d="M377.55 791.55C404.05 750.15 431.15 709.15 458.75 668.45C472.45 648.05 486.45 627.85 500.25 607.55L542.25 547.05L584.75 486.85C599.05 466.95 613.25 446.85 627.75 427.05C656.45 387.25 685.75 347.75 715.65 308.75C689.15 350.15 662.15 391.15 634.55 431.85C620.85 452.25 606.85 472.45 593.05 492.75L550.95 553.15L508.45 613.35C494.15 633.35 479.95 653.35 465.45 673.15C436.75 713.05 407.45 752.45 377.55 791.55Z" fill="#FFFF00"/>
<path d="M422.05 817.25C440.95 771.85 460.45 726.75 480.65 681.95C490.55 659.45 500.85 637.15 510.95 614.85L541.85 547.95L573.25 481.25C583.85 459.15 594.35 436.85 605.15 414.85C626.55 370.65 648.55 326.65 671.15 283.05C652.25 328.45 632.75 373.55 612.65 418.35C602.75 440.85 592.45 463.15 582.35 485.45L551.45 552.35L519.95 619.05C509.35 641.15 498.85 663.35 488.05 685.45C466.65 729.65 444.65 773.55 422.05 817.25Z" fill="#FFFF00"/>
<path d="M470.35 834.85C481.05 786.85 492.45 739.05 504.55 691.45C510.45 667.65 516.65 643.85 522.75 620.05L541.55 548.85L560.85 477.75C567.45 454.15 573.95 430.45 580.75 406.85C594.15 359.55 608.15 312.45 622.85 265.55C612.15 313.55 600.75 361.35 588.65 408.95C582.75 432.75 576.55 456.55 570.45 480.35L551.65 551.55L532.35 622.65C525.75 646.25 519.25 669.95 512.45 693.55C499.05 740.85 485.05 787.85 470.35 834.85Z" fill="#FFFF00"/>
<path d="M520.95 843.75C523.25 794.65 526.15 745.55 529.75 696.65C531.45 672.15 533.45 647.65 535.25 623.15L541.35 549.75L548.05 476.35C550.45 451.95 552.75 427.45 555.35 403.05C560.35 354.15 565.95 305.35 572.25 256.65C570.05 305.75 567.05 354.85 563.55 403.75C561.85 428.25 559.85 452.75 558.05 477.25L551.95 550.65L545.25 624.05C542.85 648.45 540.55 672.95 537.95 697.35C532.85 746.15 527.25 794.95 520.95 843.75Z" fill="#FFFF00"/>
<path d="M572.35 843.75C566.05 794.95 560.35 746.15 555.45 697.35C552.85 672.95 550.55 648.45 548.15 624.05L541.45 550.65L535.35 477.25C533.55 452.75 531.45 428.25 529.85 403.75C526.25 354.75 523.35 305.75 521.15 256.65C527.45 305.45 533.15 354.25 538.05 403.05C540.65 427.45 542.95 451.95 545.35 476.35L552.05 549.75L558.15 623.15C560.05 647.65 562.05 672.15 563.65 696.65C567.15 745.55 570.05 794.65 572.35 843.75Z" fill="#FFFF00"/>
<path d="M622.85 834.85C608.15 787.95 594.15 740.85 580.75 693.55C573.95 669.95 567.45 646.25 560.85 622.65L541.55 551.55L522.75 480.35C516.65 456.55 510.45 432.85 504.55 408.95C492.55 361.35 481.15 313.55 470.35 265.55C485.05 312.45 499.05 359.55 512.45 406.85C519.25 430.45 525.75 454.15 532.35 477.75L551.65 548.85L570.45 620.05C576.55 643.85 582.75 667.55 588.65 691.45C600.75 739.05 612.15 786.85 622.85 834.85Z" fill="#FFFF00"/>
<path d="M671.15 817.25C648.55 773.55 626.55 729.65 605.15 685.45C594.35 663.35 583.85 641.15 573.25 619.05L541.85 552.45L510.95 485.45C500.85 463.05 490.55 440.75 480.65 418.35C460.55 373.55 441.05 328.45 422.15 283.05C444.75 326.65 466.75 370.65 488.15 414.85C498.95 436.95 509.45 459.15 520.05 481.25L551.45 547.95L582.35 614.85C592.45 637.25 602.75 659.55 612.65 681.95C632.75 726.75 652.25 771.85 671.15 817.25Z" fill="#FFFF00"/>
<path d="M715.65 791.55C685.85 752.45 656.55 713.05 627.75 673.15C613.25 653.35 599.05 633.25 584.75 613.35L542.35 553.15L500.35 492.65C486.55 472.35 472.45 452.15 458.85 431.75C431.25 391.15 404.15 350.05 377.75 308.65C407.55 347.75 436.85 387.15 465.65 426.95C480.15 446.75 494.35 466.85 508.65 486.75L550.95 547.15L592.95 607.65C606.85 627.95 620.75 648.15 634.45 668.55C662.05 709.15 689.15 750.15 715.65 791.55Z" fill="#FFFF00"/>
<path d="M755.05 758.55C718.85 725.25 683.15 691.45 647.95 657.25C630.25 640.25 612.85 622.95 595.25 605.75L542.95 553.85L490.95 501.55C473.75 483.95 456.45 466.55 439.45 448.85C405.25 413.65 371.45 377.95 338.15 341.75C374.35 375.05 410.05 408.75 445.25 443.05C462.95 460.05 480.35 477.35 497.95 494.55L550.25 546.45L602.15 598.75C619.35 616.35 636.65 633.75 653.65 651.45C687.95 686.65 721.75 722.35 755.05 758.55Z" fill="#FFFF00"/>
<path d="M788.05 719.15C746.65 692.65 705.65 665.55 664.95 637.95C644.55 624.25 624.35 610.25 604.05 596.45L543.55 554.45L483.35 511.95C463.45 497.65 443.35 483.45 423.55 468.95C383.75 440.25 344.25 410.95 305.25 381.05C346.65 407.55 387.65 434.55 428.35 462.15C448.75 475.85 468.95 489.85 489.25 503.65L549.75 545.65L609.95 588.15C629.95 602.45 649.95 616.65 669.75 631.15C709.55 660.05 748.95 689.35 788.05 719.15Z" fill="#FFFF00"/>
<path d="M813.75 674.65C768.35 655.75 723.25 636.25 678.45 616.05C655.95 606.15 633.65 595.85 611.35 585.75L544.45 554.85L477.75 523.45C455.65 512.85 433.35 502.35 411.35 491.55C367.15 470.15 323.15 448.15 279.55 425.55C324.95 444.45 370.05 463.95 414.85 484.05C437.35 493.95 459.65 504.25 481.95 514.35L548.85 545.25L615.45 576.65C637.55 587.25 659.75 597.75 681.85 608.55C726.15 630.05 770.05 652.05 813.75 674.65Z" fill="#FFFF00"/>
<path d="M831.25 626.45C783.25 615.75 735.45 604.35 687.85 592.25C664.05 586.35 640.25 580.15 616.45 574.05L545.25 555.25L474.15 535.95C450.55 529.35 426.85 522.85 403.25 516.05C355.95 502.65 308.85 488.65 261.95 473.95C309.95 484.65 357.75 496.05 405.35 508.15C429.15 514.05 452.95 520.25 476.75 526.35L547.95 545.15L619.05 564.45C642.65 571.05 666.35 577.55 689.95 584.35C737.25 597.75 784.35 611.75 831.25 626.45Z" fill="#FFFF00"/>
<path d="M840.15 575.85C791.05 573.55 741.95 570.65 693.05 567.05C668.55 565.35 644.05 563.35 619.55 561.55L546.15 555.45L472.75 548.75C448.35 546.35 423.85 544.05 399.45 541.45C350.55 536.45 301.75 530.85 253.05 524.55C302.15 526.75 351.25 529.75 400.15 533.25C424.65 534.95 449.15 536.95 473.65 538.75L547.05 544.85L620.45 551.55C644.85 553.95 669.35 556.25 693.75 558.85C742.65 563.85 791.45 569.55 840.15 575.85Z" fill="#FFFF00"/>
<path d="M840.15 524.45C791.35 530.75 742.55 536.45 693.75 541.35C669.35 543.95 644.85 546.25 620.45 548.65L547.05 555.35L473.65 561.45C449.15 563.25 424.65 565.35 400.15 566.95C351.15 570.55 302.15 573.45 253.05 575.65C301.85 569.35 350.65 563.65 399.45 558.75C423.85 556.15 448.35 553.85 472.75 551.45L546.15 544.75L619.55 538.65C644.05 536.75 668.55 534.75 693.05 533.15C742.05 529.65 791.05 526.75 840.15 524.45Z" fill="#FFFF00"/>
<path d="M831.25 473.85C784.35 488.55 737.25 502.55 689.95 515.95C666.35 522.75 642.65 529.25 619.05 535.85L547.95 555.25L476.75 574.05C452.95 580.15 429.25 586.35 405.35 592.25C357.75 604.25 309.95 615.65 261.95 626.45C308.85 611.75 355.95 597.75 403.25 584.35C426.85 577.55 450.55 571.05 474.15 564.45L545.25 545.15L616.45 526.35C640.25 520.25 663.95 514.05 687.85 508.15C735.55 496.05 783.35 484.65 831.25 473.85Z" fill="#FFFF00"/>
<path d="M813.75 425.65C770.05 448.25 726.15 470.25 681.95 491.65C659.85 502.45 637.65 512.95 615.55 523.55L548.95 554.95L481.95 585.85C459.55 595.95 437.25 606.25 414.85 616.15C370.05 636.25 324.95 655.75 279.55 674.65C323.15 652.05 367.15 630.05 411.35 608.65C433.45 597.85 455.65 587.35 477.75 576.75L544.45 545.35L611.35 514.45C633.75 504.35 656.05 494.05 678.45 484.15C723.25 464.05 768.35 444.55 813.75 425.65Z" fill="#FFFF00"/>
<path d="M788.05 381.15C748.95 410.95 709.55 440.25 669.65 469.05C649.85 483.55 629.75 497.75 609.85 512.05L549.65 554.55L489.15 596.55C468.85 610.35 448.65 624.45 428.25 638.05C387.65 665.65 346.55 692.75 305.15 719.15C344.25 689.35 383.65 660.05 423.45 631.25C443.25 616.75 463.35 602.55 483.25 588.25L543.45 545.75L603.95 503.75C624.25 489.85 644.45 475.95 664.85 462.25C705.65 434.65 746.65 407.65 788.05 381.15Z" fill="#FFFF00"/>
<path d="M357.15 775.95C387.15 737.05 417.65 698.55 448.75 660.45C464.15 641.35 479.85 622.45 495.45 603.45L542.55 546.85L590.15 490.55C606.15 471.95 622.05 453.15 638.15 434.65C670.25 397.45 702.85 360.75 736.05 324.45C706.05 363.35 675.55 401.95 644.45 439.95C629.05 459.05 613.35 477.95 597.75 496.95L550.65 553.55L503.05 609.85C487.05 628.45 471.15 647.25 455.05 665.75C422.95 702.85 390.35 739.55 357.15 775.95Z" fill="#FFFF00"/>
<path d="M399.25 805.35C422.05 761.75 445.45 718.55 469.35 675.65C481.25 654.15 493.35 632.85 505.45 611.45L542.049 547.55L579.15 483.85C591.65 462.75 604.05 441.55 616.75 420.45C641.95 378.25 667.65 336.45 693.95 294.85C671.15 338.45 647.75 381.65 623.85 424.55C611.95 446.05 599.75 467.35 587.75 488.75L551.15 552.65L514.049 616.35C501.549 637.45 489.15 658.65 476.45 679.75C451.35 721.95 425.55 763.85 399.25 805.35Z" fill="#FFFF00"/>
<path d="M445.85 827.05C460.75 780.15 476.25 733.55 492.35 687.15C500.25 663.95 508.55 640.75 516.75 617.65L541.65 548.35L567.15 479.25C575.85 456.25 584.35 433.25 593.15 410.35C610.55 364.45 628.65 318.75 647.45 273.25C632.55 320.15 617.05 366.75 600.95 413.15C593.05 436.35 584.75 459.55 576.55 482.65L551.65 551.95L526.15 621.05C517.45 644.05 508.95 667.05 500.15 689.95C482.65 735.95 464.55 781.65 445.85 827.05Z" fill="#FFFF00"/>
<path d="M495.45 840.35C501.95 791.65 509.15 743.05 517.05 694.55C520.85 670.25 524.95 646.05 528.95 621.85L541.45 549.25L554.55 476.75C559.15 452.65 563.45 428.45 568.25 404.35C577.45 356.05 587.35 307.95 597.85 259.95C591.35 308.65 584.15 357.25 576.35 405.75C572.55 430.05 568.35 454.25 564.45 478.45L551.95 551.05L538.85 623.55C534.35 647.65 529.95 671.85 525.15 695.95C515.85 744.25 505.95 792.35 495.45 840.35Z" fill="#FFFF00"/>
<path d="M546.65 844.85C544.65 795.75 543.25 746.65 542.55 697.55C542.05 672.95 541.95 648.45 541.65 623.85L541.35 550.15L541.65 476.45C541.95 451.85 542.05 427.35 542.55 402.75C543.25 353.65 544.65 304.55 546.65 255.45C548.65 304.55 550.05 353.65 550.75 402.75C551.25 427.35 551.35 451.85 551.65 476.45L551.95 550.15L551.65 623.85C551.35 648.45 551.25 672.95 550.75 697.55C550.05 746.65 548.65 795.75 546.65 844.85Z" fill="#FFFF00"/>
<path d="M597.75 840.35C587.25 792.35 577.35 744.25 568.15 695.95C563.45 671.85 559.05 647.65 554.45 623.55L541.35 551.05L528.95 478.45C524.95 454.25 520.85 430.05 517.05 405.75C509.15 357.25 502.05 308.65 495.55 259.95C506.05 307.95 515.95 356.05 525.15 404.35C529.85 428.45 534.25 452.65 538.85 476.75L551.95 549.25L564.45 621.85C568.45 646.05 572.55 670.25 576.35 694.55C584.05 743.05 591.25 791.65 597.75 840.35Z" fill="#FFFF00"/>
<path d="M647.45 827.05C628.75 781.55 610.65 735.95 593.25 689.95C584.35 667.05 575.85 643.95 567.25 621.05L541.75 551.95L516.85 482.65C508.75 459.45 500.45 436.35 492.45 413.15C476.25 366.75 460.75 320.15 445.95 273.25C464.65 318.75 482.75 364.35 500.25 410.35C509.15 433.25 517.55 456.35 526.25 479.25L551.75 548.35L576.65 617.65C584.75 640.85 593.05 663.95 601.05 687.15C617.05 733.65 632.55 780.25 647.45 827.05Z" fill="#FFFF00"/>
<path d="M693.95 805.35C667.65 763.85 641.85 721.95 616.75 679.75C604.05 658.75 591.65 637.55 579.15 616.35L542.049 552.65L505.45 488.75C493.45 467.35 481.25 446.05 469.35 424.55C445.35 381.65 422.05 338.45 399.25 294.85C425.55 336.35 451.35 378.25 476.45 420.45C489.15 441.45 501.549 462.65 514.049 483.85L551.15 547.55L587.75 611.45C599.75 632.85 611.95 654.15 623.85 675.65C647.85 718.55 671.15 761.85 693.95 805.35Z" fill="#FFFF00"/>
<path d="M736.05 775.95C702.95 739.65 670.35 702.85 638.15 665.75C621.95 647.25 606.15 628.55 590.15 609.85L542.55 553.55L495.45 496.95C479.85 477.95 464.15 459.05 448.75 439.95C417.75 401.85 387.15 363.35 357.15 324.45C390.25 360.75 422.95 397.45 455.05 434.65C471.25 453.15 487.05 471.95 503.05 490.55L550.65 546.85L597.75 603.45C613.35 622.45 629.05 641.35 644.45 660.45C675.55 698.45 706.05 736.95 736.05 775.95Z" fill="#FFFF00"/>
<path d="M772.35 739.55C733.45 709.55 694.95 679.05 656.85 647.95C637.75 632.55 618.85 616.85 599.85 601.25L543.25 554.15L486.95 506.65C468.35 490.65 449.55 474.75 431.05 458.65C393.85 426.55 357.15 393.95 320.85 360.75C359.75 390.75 398.35 421.25 436.35 452.35C455.45 467.75 474.35 483.45 493.35 499.05L549.95 546.15L606.25 593.75C624.85 609.75 643.65 625.65 662.15 641.75C699.35 673.85 736.05 706.45 772.35 739.55Z" fill="#FFFF00"/>
<path d="M801.85 697.45C758.25 674.65 715.05 651.25 672.15 627.35C650.65 615.45 629.35 603.35 607.95 591.25L543.95 554.65L480.25 517.55C459.25 505.15 437.95 492.75 416.95 480.05C374.75 454.85 332.95 429.15 291.35 402.85C334.95 425.65 378.15 449.05 421.05 472.95C442.55 484.85 463.85 497.05 485.25 509.05L549.15 545.65L612.85 582.75C633.95 595.25 655.15 607.65 676.25 620.35C718.45 645.45 760.35 671.15 801.85 697.45Z" fill="#FFFF00"/>
<path d="M823.549 650.95C776.649 636.05 730.05 620.55 683.65 604.45C660.45 596.55 637.25 588.25 614.15 580.05L544.85 555.15L475.75 529.65C452.75 520.95 429.75 512.45 406.85 503.65C360.95 486.25 315.25 468.15 269.75 449.35C316.65 464.25 363.25 479.75 409.65 495.85C432.85 503.75 456.05 512.05 479.15 520.25L548.45 545.15L617.549 570.65C640.549 579.35 663.55 587.85 686.45 596.65C732.45 614.15 778.049 632.25 823.549 650.95Z" fill="#FFFF00"/>
<path d="M836.85 601.35C788.15 594.85 739.55 587.65 691.05 579.75C666.75 575.95 642.55 571.85 618.35 567.85L545.75 555.35L473.25 542.25C449.15 537.65 424.95 533.35 400.85 528.55C352.55 519.35 304.45 509.45 256.45 498.95C305.15 505.45 353.75 512.65 402.25 520.45C426.55 524.25 450.75 528.45 474.95 532.35L547.55 544.85L620.05 557.95C644.15 562.45 668.35 566.85 692.45 571.65C740.65 580.95 788.85 590.75 836.85 601.35Z" fill="#FFFF00"/>
<path d="M841.35 550.15C792.25 552.15 743.15 553.55 694.05 554.25C669.45 554.75 644.95 554.85 620.35 555.15L546.65 555.45L472.95 555.15C448.35 554.85 423.85 554.75 399.25 554.25C350.15 553.55 301.05 552.15 251.95 550.15C301.05 548.15 350.15 546.75 399.25 546.05C423.85 545.55 448.35 545.45 472.95 545.15L546.65 544.85L620.35 545.15C644.95 545.45 669.45 545.55 694.05 546.05C743.05 546.75 792.25 548.15 841.35 550.15Z" fill="#FFFF00"/>
<path d="M836.85 498.95C788.85 509.45 740.75 519.35 692.45 528.55C668.35 533.25 644.15 537.65 620.05 542.25L547.55 555.35L474.95 567.85C450.75 571.85 426.55 575.95 402.25 579.75C353.75 587.65 305.15 594.75 256.45 601.25C304.45 590.75 352.55 580.85 400.85 571.65C424.95 566.95 449.15 562.55 473.25 557.95L545.75 544.85L618.35 532.35C642.55 528.35 666.75 524.25 691.05 520.45C739.55 512.65 788.15 505.45 836.85 498.95Z" fill="#FFFF00"/>
<path d="M823.549 449.35C778.049 468.05 732.45 486.15 686.45 503.55C663.55 512.45 640.449 520.95 617.549 529.55L548.45 555.05L479.15 579.95C455.95 588.05 432.85 596.35 409.65 604.35C363.25 620.55 316.65 636.05 269.75 650.85C315.25 632.15 360.85 614.05 406.85 596.55C429.75 587.65 452.85 579.25 475.75 570.55L544.85 545.05L614.15 520.15C637.35 512.05 660.45 503.75 683.65 495.75C730.05 479.75 776.649 464.25 823.549 449.35Z" fill="#FFFF00"/>
<path d="M801.85 402.85C760.35 429.15 718.45 454.95 676.25 480.05C655.25 492.75 634.05 505.15 612.85 517.65L549.15 554.75L485.25 591.35C463.85 603.35 442.55 615.55 421.05 627.45C378.15 651.45 334.95 674.75 291.35 697.55C332.95 671.15 374.75 645.45 416.95 620.25C437.95 607.55 459.15 595.15 480.35 582.65L544.05 545.55L608.05 508.95C629.45 496.95 650.75 484.75 672.25 472.85C715.05 448.95 758.25 425.55 801.85 402.85Z" fill="#FFFF00"/>
<path d="M772.35 360.75C736.05 393.85 699.25 426.45 662.15 458.65C643.65 474.85 624.95 490.65 606.25 506.65L550.05 554.15L493.45 601.25C474.45 616.85 455.55 632.55 436.45 647.95C398.35 678.95 359.85 709.55 320.95 739.55C357.25 706.45 393.95 673.75 431.15 641.65C449.65 625.45 468.35 609.65 487.05 593.65L543.35 546.05L599.95 498.95C618.95 483.35 637.85 467.65 656.95 452.25C694.95 421.25 733.45 390.75 772.35 360.75Z" fill="#FFFF00"/>
<path d="M472.75 698.05C465.15 733.45 452.35 760.45 434.25 779.05C416.15 797.65 393.95 806.95 367.65 806.95C340.25 806.95 316.55 795.45 296.65 772.55C276.75 749.65 264.65 720.15 260.35 683.95C269.05 677.05 278.45 671.45 288.75 667.15C299.05 662.85 310.45 659.75 323.15 657.95C328.25 694.45 333.75 719.35 339.95 732.65C346.05 746.05 354.75 752.65 365.95 752.65C379.35 752.65 389.15 743.45 395.45 725.05C401.75 706.65 404.95 677.95 404.95 638.95C404.95 601.45 403.55 559.75 400.65 514.15C397.75 468.45 393.65 424.15 388.15 381.15C394.65 377.15 402.75 373.95 412.55 371.45C422.25 368.95 432.45 367.45 442.85 367.15C450.05 366.75 456.95 366.95 463.45 367.65C469.95 368.35 476.45 369.45 482.95 370.85C484.75 390.75 486.15 411.75 487.25 433.95C488.35 456.15 488.85 478.25 488.85 500.25C488.85 545.75 487.55 583.25 485.05 612.65C482.65 642.25 478.55 670.65 472.75 698.05Z" fill="#00FF00"/>
<path d="M716.65 737.65C705.85 740.55 694.449 742.75 682.549 744.15C670.649 745.55 657.049 746.55 641.949 746.85C642.649 695.95 641.549 638.95 638.749 575.95C635.849 512.95 631.349 457.25 625.249 408.85C614.449 409.95 602.349 411.25 588.949 412.65C575.549 414.05 555.149 416.45 527.749 419.65C524.149 409.15 521.45 398.75 519.65 388.55C517.85 378.25 517.149 368.65 517.449 359.55C569.449 349.05 617.249 341.65 660.949 337.35C704.649 333.05 753.95 330.65 808.85 330.35C810.25 335.05 811.45 340.35 812.35 346.35C813.25 352.35 813.749 358.75 813.749 365.55C813.749 370.25 813.449 375.15 812.949 380.15C812.449 385.25 811.449 391.85 809.949 400.15C797.649 400.15 784.749 400.35 771.249 400.65C757.749 401.05 739.05 401.55 715.15 402.25C718.05 432.25 720.15 463.15 721.35 495.15C722.65 527.15 723.249 560.65 723.249 595.65C723.249 614.05 722.75 634.15 721.85 656.05C720.95 677.95 719.25 705.15 716.65 737.65Z" fill="#00FF00"/>
<path d="M973.65 704.15C701.05 598.75 398.95 598.75 126.35 704.15C111.95 709.75 100.45 702.45 100.45 687.65C100.45 642.45 100.45 597.35 100.45 552.15C100.45 537.25 112.05 520.45 126.35 514.85C398.95 409.45 701.05 409.45 973.65 514.85C988.05 520.45 999.55 537.25 999.55 552.15C999.55 597.35 999.55 642.45 999.55 687.65C999.55 702.45 987.95 709.65 973.65 704.15Z" fill="black"/>
<path d="M258.05 597.05C255.85 608.05 252.15 616.95 246.85 623.85C241.65 630.75 235.15 635.35 227.55 637.55C219.65 639.85 212.85 638.55 207.05 633.65C201.35 628.65 197.85 621.15 196.65 610.95C199.15 608.15 201.85 605.65 204.85 603.35C207.85 601.15 211.15 599.25 214.75 597.55C216.25 607.85 217.85 614.65 219.55 618.05C221.35 621.45 223.85 622.65 227.05 621.75C230.95 620.65 233.75 617.05 235.55 611.15C237.35 605.25 238.25 596.55 238.25 585.05C238.25 573.95 237.85 561.85 236.95 548.65C236.15 535.45 234.95 522.75 233.35 510.55C235.25 508.85 237.55 507.25 240.45 505.65C243.25 504.15 246.25 502.85 249.25 501.95C251.35 501.25 253.35 500.75 255.25 500.55C257.15 500.25 259.05 500.05 260.95 500.05C261.45 505.75 261.85 511.85 262.25 518.25C262.55 524.75 262.75 531.15 262.75 537.65C262.75 551.05 262.35 562.15 261.65 571.05C260.95 579.85 259.75 588.45 258.05 597.05Z" fill="#00FF00"/>
<path d="M305.25 605.25C295.55 607.35 288.15 605.35 283.05 598.95C277.95 592.55 275.45 582.25 275.45 568.05C275.45 560.55 276.15 552.55 277.65 544.05C279.15 535.65 280.75 529.55 282.35 526.05C284.25 525.15 286.05 524.35 287.85 523.75C289.65 523.05 291.35 522.55 293.05 522.15C295.35 521.65 297.45 521.35 299.15 521.25C300.85 521.15 302.25 521.35 303.15 521.65C301.85 527.45 300.95 533.55 300.25 539.85C299.65 546.25 299.25 552.55 299.25 558.95C299.25 568.95 300.05 576.75 301.75 582.35C303.35 587.95 305.65 590.45 308.65 589.75C311.95 589.05 314.45 585.15 316.15 578.05C317.85 570.95 318.75 561.45 318.75 549.65C318.75 545.05 318.55 540.35 318.15 535.55C317.75 530.65 317.35 527.35 316.85 525.55C319.95 523.65 323.65 521.85 328.15 520.15C332.65 518.45 336.95 517.25 341.05 516.55C341.55 519.15 341.95 522.15 342.25 525.85C342.55 529.45 342.65 533.15 342.65 537.05C342.65 556.95 339.45 572.65 333.05 584.15C326.95 595.55 317.55 602.55 305.25 605.25Z" fill="#00FF00"/>
<path d="M377.75 570.15C377.75 573.55 377.85 577.45 377.95 581.95C378.15 586.45 378.25 590.45 378.55 593.95C376.25 595.05 373.15 596.15 369.35 597.15C365.55 598.25 362.05 599.05 358.75 599.55C357.55 588.65 356.45 574.35 355.45 556.45C354.45 538.55 353.95 523.35 353.95 510.95C355.85 509.65 358.45 508.45 361.65 507.35C364.85 506.25 368.25 505.45 371.65 504.85C373.15 504.65 374.65 504.45 376.25 504.35C377.85 504.25 379.55 504.25 381.35 504.35C381.15 506.15 380.85 508.45 380.65 510.95C380.35 513.55 380.15 516.45 379.95 519.85C383.15 514.25 386.75 509.95 390.65 506.85C394.65 503.75 398.95 501.95 403.65 501.35C410.85 500.45 416.15 502.45 419.65 507.15C423.15 511.95 424.85 519.55 424.85 529.95C424.85 538.15 424.15 547.55 422.85 558.35C421.55 569.05 420.05 577.45 418.55 583.45C415.35 583.75 411.75 583.85 407.85 583.95C403.95 584.05 399.75 583.85 395.45 583.65C397.25 573.55 398.65 564.15 399.65 555.55C400.65 546.95 401.05 539.55 401.05 533.35C401.05 528.65 400.45 525.45 399.25 523.55C398.05 521.65 396.25 520.95 393.65 521.25C390.85 521.65 388.15 523.55 385.45 526.95C382.75 530.35 380.45 534.85 378.55 540.45C378.25 545.35 377.95 550.45 377.85 555.65C377.85 560.65 377.75 565.55 377.75 570.15Z" fill="#00FF00"/>
<path d="M506.55 551.55C506.55 573.15 503.05 589.65 496.15 601.25C489.25 612.85 479.35 619.05 466.55 619.95C457.85 620.55 450.95 618.75 445.75 614.45C440.65 610.15 437.75 604.35 437.05 596.85C439.75 594.55 442.85 592.55 446.35 590.85C449.85 589.15 453.45 587.85 457.15 587.05C458.15 593.75 459.45 598.55 461.25 601.45C463.05 604.35 465.45 605.65 468.45 605.45C472.25 605.15 475.25 602.15 477.45 596.45C479.75 590.65 481.25 582.25 481.95 570.95C479.95 573.75 477.55 575.85 475.05 577.25C472.45 578.65 469.65 579.55 466.55 579.75C457.25 580.45 449.75 577.55 444.05 570.95C438.45 564.35 435.65 555.25 435.65 543.65C435.65 529.05 439.15 517.55 446.15 509.15C453.15 500.75 463.25 495.95 476.55 495.15C480.05 494.95 484.05 495.15 488.45 495.65C492.85 496.25 496.95 497.05 500.75 498.25C502.35 503.85 503.75 511.85 504.85 522.25C505.95 532.85 506.55 542.55 506.55 551.55ZM459.45 537.55C459.45 546.05 460.75 552.75 463.35 557.55C465.95 562.35 469.25 564.65 473.35 564.35C475.15 564.25 476.85 563.35 478.45 561.85C480.05 560.25 481.35 557.95 482.55 554.95C482.45 547.55 481.95 539.85 481.05 531.85C480.15 523.85 479.05 516.75 477.65 510.45C476.85 510.35 476.15 510.35 475.35 510.25C474.55 510.15 473.85 510.15 473.05 510.25C468.45 510.55 464.95 512.95 462.75 517.45C460.65 521.95 459.45 528.65 459.45 537.55Z" fill="#00FF00"/>
<path d="M545.35 585.15C543.45 585.75 540.35 586.35 536.05 586.85C531.75 587.35 528.05 587.65 524.65 587.75C522.95 566.95 521.75 545.65 521.05 523.95C520.35 502.25 520.25 482.15 520.65 463.75C522.55 462.55 524.85 461.55 527.55 460.75C530.25 459.95 533.05 459.55 535.95 459.55C537.95 459.55 539.95 459.65 541.95 459.95C543.85 460.25 545.85 460.65 547.95 461.15C546.55 474.65 545.65 493.55 545.25 517.95C544.75 542.25 544.75 564.65 545.35 585.15Z" fill="#00FF00"/>
<path d="M608.75 550.45C611.85 551.15 615.05 552.45 618.25 554.35C621.45 556.25 624.15 558.35 626.35 560.65C624.35 566.45 619.75 571.45 612.85 575.65C605.85 579.85 597.95 581.75 588.95 581.45C578.75 581.05 570.75 577.65 565.05 570.95C559.35 564.35 556.45 555.45 556.45 544.25C556.45 530.15 560.75 517.55 569.25 506.75C577.85 495.95 587.75 490.75 599.15 491.25C607.15 491.65 613.45 494.15 618.05 498.75C622.75 503.35 625.05 509.25 625.05 516.55C625.05 519.95 624.75 523.55 624.05 527.45C623.35 531.35 622.45 534.85 621.25 537.95C618.45 539.05 615.05 539.75 610.95 540.05C606.85 540.35 601.85 540.45 595.75 540.15C593.25 540.05 590.75 539.75 588.25 539.35C585.75 538.95 583.15 538.35 580.55 537.65C580.45 539.35 580.35 540.65 580.35 541.45C580.25 542.35 580.25 543.05 580.25 543.85C580.25 551.05 581.35 556.75 583.55 561.05C585.75 565.25 588.75 567.45 592.65 567.65C595.65 567.75 598.75 566.05 601.95 562.45C605.25 558.95 607.45 554.95 608.75 550.45ZM582.55 525.55C584.75 526.25 586.85 526.85 589.05 527.25C591.25 527.65 593.35 527.95 595.25 527.95C596.45 528.05 597.65 528.05 598.75 527.95C599.95 527.95 600.75 527.85 601.15 527.75C601.95 525.05 602.45 522.45 602.85 520.15C603.25 517.75 603.45 515.65 603.45 513.75C603.45 510.55 602.95 508.15 601.95 506.65C600.95 505.15 599.45 504.25 597.25 504.15C594.25 504.05 591.35 505.85 588.75 509.75C586.15 513.65 584.05 518.95 582.55 525.55Z" fill="#00FF00"/>
<path d="M726.95 586.25C723.75 586.55 720.35 586.65 716.85 586.55C713.35 586.45 709.35 586.15 704.85 585.55C705.05 570.55 704.75 553.75 703.85 535.15C702.95 516.45 701.65 499.85 699.85 485.45C696.65 485.35 693.05 485.25 689.15 485.15C685.15 485.05 679.15 484.95 671.05 485.05C669.95 481.85 669.15 478.75 668.65 475.65C668.15 472.55 667.85 469.65 668.05 467.05C683.45 465.65 697.65 465.35 710.55 465.95C723.45 466.55 738.05 468.25 754.15 471.25C754.55 472.75 754.95 474.35 755.15 476.15C755.45 477.95 755.55 479.85 755.55 481.85C755.55 483.25 755.45 484.65 755.35 486.15C755.15 487.65 754.85 489.55 754.45 491.85C750.85 491.15 747.05 490.55 743.05 489.95C739.05 489.35 733.55 488.55 726.55 487.65C727.45 496.65 728.05 505.85 728.35 515.25C728.75 524.75 728.95 534.65 728.95 544.95C728.95 550.35 728.85 556.25 728.55 562.65C728.25 568.85 727.65 576.75 726.95 586.25Z" fill="#00FF00"/>
<path d="M800.25 577.95C803.35 579.15 806.45 581.05 809.55 583.55C812.75 586.05 815.35 588.55 817.45 591.25C815.45 596.75 811.05 600.85 804.15 603.85C797.25 606.85 789.45 607.35 780.75 605.55C770.65 603.45 762.85 598.55 757.25 590.95C751.65 583.35 748.85 573.95 748.85 562.85C748.85 548.75 753.05 536.95 761.55 527.55C769.95 518.15 779.85 514.75 791.05 517.25C798.85 518.95 805.05 522.65 809.65 528.05C814.25 533.45 816.55 539.85 816.55 547.05C816.55 550.45 816.25 554.05 815.55 557.75C814.85 561.55 813.95 564.85 812.75 567.75C810.05 568.35 806.65 568.45 802.65 568.15C798.65 567.75 793.65 566.95 787.75 565.65C785.35 565.15 782.85 564.45 780.35 563.55C777.85 562.75 775.35 561.65 772.85 560.55C772.75 562.25 772.65 563.45 772.65 564.35C772.55 565.15 772.55 565.95 772.55 566.75C772.55 573.95 773.65 579.85 775.85 584.45C778.05 589.05 781.05 591.75 784.85 592.55C787.85 593.15 790.85 592.05 793.95 588.95C796.85 585.85 799.05 582.25 800.25 577.95ZM774.55 548.55C776.65 549.65 778.85 550.55 780.95 551.35C783.15 552.15 785.15 552.75 787.05 553.15C788.25 553.45 789.35 553.65 790.55 553.75C791.75 553.95 792.55 553.95 792.95 553.95C793.65 551.35 794.25 548.95 794.65 546.55C795.05 544.25 795.25 542.15 795.25 540.25C795.25 537.05 794.75 534.65 793.85 532.95C792.85 531.25 791.35 530.15 789.25 529.65C786.25 528.95 783.45 530.35 780.85 533.75C778.15 537.25 776.05 542.15 774.55 548.55Z" fill="#00FF00"/>
<path d="M893.55 577.05C893.55 583.85 892.65 592.75 890.85 603.85C889.05 614.95 886.75 625.45 884.05 635.55C881.05 634.65 877.95 633.45 874.65 632.05C871.45 630.65 868.45 629.25 865.75 627.65C866.15 625.55 866.45 623.95 866.65 622.95C866.85 621.95 866.95 621.05 867.15 620.25C864.95 620.85 862.55 621.15 859.75 620.95C857.05 620.75 854.15 620.25 851.15 619.45C843.05 617.15 836.65 613.35 831.75 607.85C826.85 602.35 824.45 596.15 824.45 589.15C824.45 581.85 827.45 577.05 833.35 574.95C839.25 572.85 848.15 573.35 859.75 576.75C861.95 577.35 863.85 577.95 865.65 578.55C867.35 579.15 869.15 579.75 871.05 580.45C871.05 580.05 871.05 579.65 871.05 579.25C871.05 578.85 871.05 578.45 871.05 578.05C871.05 568.35 870.25 561.25 868.75 556.65C867.15 552.05 864.65 549.25 861.25 548.25C857.85 547.25 854.85 548.35 852.45 551.45C850.05 554.55 848.75 559.05 848.65 564.85C843.55 563.35 839.25 561.15 835.95 558.25C832.55 555.35 830.15 552.05 828.75 548.15C830.45 542.45 834.55 538.25 841.05 535.75C847.55 533.25 855.05 533.15 863.45 535.65C873.35 538.55 880.85 543.65 885.95 550.65C890.95 557.75 893.55 566.55 893.55 577.05ZM848.05 597.05C848.05 600.15 848.95 602.75 850.65 604.95C852.35 607.15 854.85 608.65 857.95 609.55C859.95 610.15 861.85 610.45 863.55 610.35C865.35 610.35 867.05 610.05 868.85 609.55C869.35 605.85 869.75 602.55 870.15 599.55C870.45 596.55 870.65 593.65 870.75 590.85C863.15 588.45 857.45 587.75 853.65 588.75C849.95 589.75 848.05 592.55 848.05 597.05Z" fill="#00FF00"/>
<path d="M974.85 566.75C974.05 573.55 969.05 579.25 963.35 583.05C957.65 586.85 951.15 589.35 945.25 592.95C942.75 594.45 939.95 596.75 937.55 599.55C944.55 605.75 947.95 612.45 947.45 618.85C947.45 619.15 947.35 619.45 947.35 619.75C948.05 618.95 948.75 618.15 949.55 617.55C954.05 613.85 958.85 611.05 962.65 607.45C966.45 603.95 969.55 600.15 971.45 596.45C973.35 592.75 974.15 589.25 974.55 586.85C974.75 585.65 974.85 584.65 974.85 584.05C974.95 583.35 974.95 583.05 974.95 583.05C974.95 583.05 974.95 583.35 974.95 584.05C974.95 584.75 974.85 585.65 974.85 586.95C974.65 589.35 974.05 592.95 972.25 596.85C970.55 600.75 967.55 604.95 963.85 608.75C960.15 612.65 955.35 615.85 951.35 619.65C949.35 621.55 947.65 623.55 946.35 625.75C945.05 627.95 944.25 630.45 944.05 632.75C943.95 633.15 943.95 633.65 943.95 634.05C943.95 634.15 944.05 634.35 944.05 634.45C944.85 637.45 946.55 640.05 949.15 641.75C954.65 645.45 962.25 644.65 967.85 641.75C976.15 637.45 979.85 627.45 981.35 618.25C984.25 600.95 981.95 582.75 974.85 566.75Z" fill="#00FF00"/>
<path d="M935.85 601.45C935.65 601.25 935.55 601.15 935.35 600.95C925.55 592.45 913.25 586.75 900.45 584.95C904.45 588.15 906.05 593.45 906.25 598.55C906.45 603.65 905.45 608.65 905.45 613.75C905.45 617.95 906.85 623.85 909.75 628.05C912.05 631.55 915.45 633.95 919.75 633.65C920.45 633.55 921.15 633.45 921.75 633.15C927.05 630.35 923.15 624.85 922.55 620.65C921.95 616.45 922.15 612.25 921.35 608.45C920.65 604.65 919.45 601.25 917.85 598.55C916.25 595.85 914.45 594.05 913.05 592.85C912.35 592.25 911.75 591.85 911.35 591.55C910.95 591.25 910.75 591.15 910.75 591.15C910.75 591.15 910.95 591.25 911.35 591.55C911.75 591.85 912.35 592.25 913.05 592.75C914.45 593.85 916.55 595.65 918.25 598.25C920.05 600.85 921.55 604.35 922.45 608.15C923.45 612.05 923.65 616.25 924.45 620.25C924.85 622.25 925.45 624.15 926.35 625.75C927.25 627.45 928.45 628.85 929.85 629.95C930.15 630.15 930.35 630.35 930.65 630.45C930.75 630.45 930.85 630.55 930.95 630.55C933.15 631.25 935.45 631.15 937.55 630.15C940.35 628.85 942.45 626.35 943.65 623.55C944.35 621.85 944.75 620.15 944.95 618.35C945.35 611.95 940.95 605.95 935.85 601.45Z" fill="#00FF00"/>
<path d="M933.25 593.05C934.95 592.95 936.45 592.25 937.75 591.05C937.85 590.95 937.85 590.95 937.95 590.85C938.05 590.65 938.15 590.45 938.25 590.25C938.75 589.05 939.05 587.75 939.05 586.35C939.05 584.95 938.85 583.45 938.45 582.05C937.65 579.15 936.25 576.35 935.55 573.45C934.85 570.65 934.65 567.85 934.95 565.45C935.25 563.15 935.95 561.25 936.45 560.05C936.75 559.45 936.95 558.95 937.15 558.65C937.35 558.35 937.45 558.15 937.45 558.15C937.45 558.15 937.35 558.35 937.25 558.65C937.05 558.95 936.85 559.45 936.65 560.05C936.15 561.25 935.55 563.15 935.45 565.45C935.35 567.75 935.75 570.35 936.55 573.15C937.35 575.85 938.85 578.55 939.95 581.55C941.05 584.55 940.35 589.45 944.85 589.45C945.35 589.45 945.85 589.25 946.35 589.05C949.25 587.75 950.65 585.05 950.95 581.95C951.35 578.15 950.35 573.85 948.85 571.05C947.05 567.75 944.65 564.75 943.05 561.35C941.45 557.95 940.65 553.85 942.15 550.45C934.35 556.05 928.25 563.95 924.75 572.95C922.85 577.75 921.85 583.45 924.55 587.85C926.25 590.75 929.55 593.25 933.25 593.05Z" fill="#00FF00"/>
<path d="M116.75 566.75C117.55 573.55 122.55 579.25 128.25 583.05C133.95 586.85 140.45 589.35 146.35 592.95C148.85 594.45 151.65 596.75 154.05 599.55C147.05 605.75 143.65 612.45 144.15 618.85C144.15 619.15 144.25 619.45 144.25 619.75C143.55 618.95 142.85 618.15 142.05 617.55C137.55 613.85 132.75 611.05 128.95 607.45C125.15 603.95 122.05 600.15 120.15 596.45C118.25 592.75 117.45 589.25 117.05 586.85C116.85 585.65 116.75 584.65 116.75 584.05C116.65 583.35 116.65 583.05 116.65 583.05C116.65 583.05 116.65 583.35 116.65 584.05C116.65 584.75 116.75 585.65 116.75 586.95C116.95 589.35 117.55 592.95 119.35 596.85C121.05 600.75 124.05 604.95 127.75 608.75C131.45 612.65 136.25 615.85 140.25 619.65C142.25 621.55 143.95 623.55 145.25 625.75C146.55 627.95 147.35 630.45 147.55 632.75C147.65 633.15 147.65 633.65 147.65 634.05C147.65 634.15 147.55 634.35 147.55 634.45C146.75 637.45 145.05 640.05 142.45 641.75C136.95 645.45 129.35 644.65 123.75 641.75C115.45 637.45 111.75 627.45 110.25 618.25C107.35 600.95 109.65 582.75 116.75 566.75Z" fill="#00FF00"/>
<path d="M155.65 601.45C155.85 601.25 155.95 601.15 156.15 600.95C165.95 592.45 178.25 586.75 191.05 584.95C187.05 588.15 185.45 593.45 185.25 598.55C185.05 603.65 186.05 608.65 186.05 613.75C186.05 617.95 184.65 623.85 181.75 628.05C179.35 631.55 176.05 633.95 171.75 633.65C171.05 633.55 170.35 633.45 169.75 633.15C164.45 630.35 168.35 624.85 168.95 620.65C169.55 616.45 169.35 612.25 170.15 608.45C170.85 604.65 172.05 601.25 173.65 598.55C175.25 595.85 177.05 594.05 178.45 592.85C179.15 592.25 179.75 591.85 180.15 591.55C180.55 591.25 180.75 591.15 180.75 591.15C180.75 591.15 180.55 591.25 180.15 591.55C179.75 591.85 179.15 592.25 178.45 592.75C177.05 593.85 174.95 595.65 173.25 598.25C171.45 600.85 169.95 604.35 169.05 608.15C168.05 612.05 167.85 616.25 167.05 620.25C166.65 622.25 166.05 624.15 165.15 625.75C164.25 627.45 163.05 628.85 161.65 629.95C161.35 630.15 161.15 630.35 160.85 630.45C160.75 630.45 160.65 630.55 160.55 630.55C158.35 631.25 156.05 631.15 153.95 630.15C151.15 628.85 149.05 626.35 147.85 623.55C147.15 621.85 146.75 620.15 146.55 618.35C146.15 611.95 150.65 605.95 155.65 601.45Z" fill="#00FF00"/>
<path d="M158.35 593.05C156.65 592.95 155.15 592.25 153.85 591.05C153.75 590.95 153.75 590.95 153.65 590.85C153.55 590.65 153.45 590.45 153.35 590.25C152.85 589.05 152.55 587.75 152.55 586.35C152.55 584.95 152.75 583.45 153.15 582.05C153.95 579.15 155.35 576.35 156.05 573.45C156.75 570.65 156.95 567.85 156.65 565.45C156.35 563.15 155.65 561.25 155.15 560.05C154.85 559.45 154.65 558.95 154.45 558.65C154.25 558.35 154.15 558.15 154.15 558.15C154.15 558.15 154.25 558.35 154.35 558.65C154.55 558.95 154.75 559.45 154.95 560.05C155.45 561.25 156.05 563.15 156.15 565.45C156.25 567.75 155.85 570.35 155.05 573.15C154.25 575.85 152.75 578.55 151.65 581.55C150.55 584.55 151.25 589.45 146.75 589.45C146.25 589.45 145.75 589.25 145.25 589.05C142.35 587.75 140.95 585.05 140.65 581.95C140.25 578.15 141.25 573.85 142.75 571.05C144.55 567.75 146.95 564.75 148.55 561.35C150.15 557.95 150.95 553.85 149.45 550.45C157.25 556.05 163.35 563.95 166.85 572.95C168.75 577.75 169.75 583.45 167.05 587.85C165.35 590.75 162.05 593.25 158.35 593.05Z" fill="#00FF00"/>
</svg>
