<svg width="201" height="67" viewBox="0 0 201 67" fill="none" xmlns="http://www.w3.org/2000/svg">
<rect width="199" height="57" rx="8" fill="#C0D860" fill-opacity="0.8"/>
<g filter="url(#filter0_d)">
<path d="M42.1719 29.4102C42.1719 32.2461 41.4688 34.4258 40.0625 35.9492C38.6562 37.4727 36.6406 38.2344 34.0156 38.2344C31.3906 38.2344 29.375 37.4727 27.9688 35.9492C26.5625 34.4258 25.8594 32.2383 25.8594 29.3867C25.8594 26.5352 26.5625 24.3594 27.9688 22.8594C29.3828 21.3516 31.4062 20.5977 34.0391 20.5977C36.6719 20.5977 38.6836 21.3555 40.0742 22.8711C41.4727 24.3867 42.1719 26.5664 42.1719 29.4102ZM29.668 29.4102C29.668 31.3242 30.0312 32.7656 30.7578 33.7344C31.4844 34.7031 32.5703 35.1875 34.0156 35.1875C36.9141 35.1875 38.3633 33.2617 38.3633 29.4102C38.3633 25.5508 36.9219 23.6211 34.0391 23.6211C32.5938 23.6211 31.5039 24.1094 30.7695 25.0859C30.0352 26.0547 29.668 27.4961 29.668 29.4102ZM49.3555 28.4727H50.5273C51.6758 28.4727 52.5234 28.2812 53.0703 27.8984C53.6172 27.5156 53.8906 26.9141 53.8906 26.0938C53.8906 25.2812 53.6094 24.7031 53.0469 24.3594C52.4922 24.0156 51.6289 23.8438 50.457 23.8438H49.3555V28.4727ZM49.3555 31.4258V38H45.7227V20.8672H50.7148C53.043 20.8672 54.7656 21.293 55.8828 22.1445C57 22.9883 57.5586 24.2734 57.5586 26C57.5586 27.0078 57.2812 27.9062 56.7266 28.6953C56.1719 29.4766 55.3867 30.0898 54.3711 30.5352C56.9492 34.3867 58.6289 36.875 59.4102 38H55.3789L51.2891 31.4258H49.3555ZM75.7812 29.2695C75.7812 32.0898 74.9766 34.25 73.3672 35.75C71.7656 37.25 69.4492 38 66.418 38H61.5664V20.8672H66.9453C69.7422 20.8672 71.9141 21.6055 73.4609 23.082C75.0078 24.5586 75.7812 26.6211 75.7812 29.2695ZM72.0078 29.3633C72.0078 25.6836 70.3828 23.8438 67.1328 23.8438H65.1992V35H66.7578C70.2578 35 72.0078 33.1211 72.0078 29.3633ZM89.1992 38H79.332V20.8672H89.1992V23.8438H82.9648V27.6055H88.7656V30.582H82.9648V35H89.1992V38ZM96.418 28.4727H97.5898C98.7383 28.4727 99.5859 28.2812 100.133 27.8984C100.68 27.5156 100.953 26.9141 100.953 26.0938C100.953 25.2812 100.672 24.7031 100.109 24.3594C99.5547 24.0156 98.6914 23.8438 97.5195 23.8438H96.418V28.4727ZM96.418 31.4258V38H92.7852V20.8672H97.7773C100.105 20.8672 101.828 21.293 102.945 22.1445C104.062 22.9883 104.621 24.2734 104.621 26C104.621 27.0078 104.344 27.9062 103.789 28.6953C103.234 29.4766 102.449 30.0898 101.434 30.5352C104.012 34.3867 105.691 36.875 106.473 38H102.441L98.3516 31.4258H96.418ZM130.062 38H125.445L117.992 25.0391H117.887C118.035 27.3281 118.109 28.9609 118.109 29.9375V38H114.863V20.8672H119.445L126.887 33.6992H126.969C126.852 31.4727 126.793 29.8984 126.793 28.9766V20.8672H130.062V38ZM149.938 29.4102C149.938 32.2461 149.234 34.4258 147.828 35.9492C146.422 37.4727 144.406 38.2344 141.781 38.2344C139.156 38.2344 137.141 37.4727 135.734 35.9492C134.328 34.4258 133.625 32.2383 133.625 29.3867C133.625 26.5352 134.328 24.3594 135.734 22.8594C137.148 21.3516 139.172 20.5977 141.805 20.5977C144.438 20.5977 146.449 21.3555 147.84 22.8711C149.238 24.3867 149.938 26.5664 149.938 29.4102ZM137.434 29.4102C137.434 31.3242 137.797 32.7656 138.523 33.7344C139.25 34.7031 140.336 35.1875 141.781 35.1875C144.68 35.1875 146.129 33.2617 146.129 29.4102C146.129 25.5508 144.688 23.6211 141.805 23.6211C140.359 23.6211 139.27 24.1094 138.535 25.0859C137.801 26.0547 137.434 27.4961 137.434 29.4102ZM170.176 38H166.039L163.719 29C163.633 28.6797 163.484 28.0195 163.273 27.0195C163.07 26.0117 162.953 25.3359 162.922 24.9922C162.875 25.4141 162.758 26.0938 162.57 27.0312C162.383 27.9609 162.238 28.625 162.137 29.0234L159.828 38H155.703L151.332 20.8672H154.906L157.098 30.2188C157.48 31.9453 157.758 33.4414 157.93 34.707C157.977 34.2617 158.082 33.5742 158.246 32.6445C158.418 31.707 158.578 30.9805 158.727 30.4648L161.223 20.8672H164.656L167.152 30.4648C167.262 30.8945 167.398 31.5508 167.562 32.4336C167.727 33.3164 167.852 34.0742 167.938 34.707C168.016 34.0977 168.141 33.3398 168.312 32.4336C168.484 31.5195 168.641 30.7812 168.781 30.2188L170.961 20.8672H174.535L170.176 38Z" fill="white"/>
</g>
<defs>
<filter id="filter0_d" x="3.85938" y="0.597656" width="196.676" height="65.6367" filterUnits="userSpaceOnUse" color-interpolation-filters="sRGB">
<feFlood flood-opacity="0" result="BackgroundImageFix"/>
<feColorMatrix in="SourceAlpha" type="matrix" values="0 0 0 0 0 0 0 0 0 0 0 0 0 0 0 0 0 0 127 0" result="hardAlpha"/>
<feOffset dx="2" dy="4"/>
<feGaussianBlur stdDeviation="12"/>
<feComposite in2="hardAlpha" operator="out"/>
<feColorMatrix type="matrix" values="0 0 0 0 0 0 0 0 0 0 0 0 0 0 0 0 0 0 0.1 0"/>
<feBlend mode="normal" in2="BackgroundImageFix" result="effect1_dropShadow"/>
<feBlend mode="normal" in="SourceGraphic" in2="effect1_dropShadow" result="shape"/>
</filter>
</defs>
</svg>
